<mxfile host="65bd71144e" scale="6" border="0">
    <diagram id="KFMysLUmyBvya3d9UHiI" name="Page-1">
        <mxGraphModel dx="1132" dy="1198" grid="1" gridSize="10" guides="1" tooltips="1" connect="1" arrows="1" fold="1" page="1" pageScale="1" pageWidth="850" pageHeight="1100" math="0" shadow="0">
            <root>
                <mxCell id="0"/>
                <mxCell id="1" parent="0"/>
                <mxCell id="4" style="edgeStyle=none;html=1;strokeWidth=12;fillColor=#dae8fc;strokeColor=#6c8ebf;" edge="1" parent="1">
                    <mxGeometry relative="1" as="geometry">
                        <mxPoint x="380" y="500" as="sourcePoint"/>
                        <mxPoint x="500" y="500" as="targetPoint"/>
                    </mxGeometry>
                </mxCell>
                <mxCell id="2" value="" style="shape=image;html=1;verticalLabelPosition=bottom;verticalAlign=top;imageAspect=1;aspect=fixed;image=data:image/png,iVBORw0KGgoAAAANSUhEUgAAAVcAAAKvCAYAAADeGIzxAAAAAXNSR0IArs4c6QAAAARnQU1BAACxjwv8YQUAAAAJcEhZcwAADsMAAA7DAcdvqGQAAHEGSURBVHhe7b0LeFXVue/9btuQbhJOayABInKxF7VKkpoQ6qWtegKCQATsqXbXjUAQvx040u4tGzZJvyRb8NONbcVCWmMR6/GC+7Sg3C8pUo9gSQImXDwbaA0gBkgi2ppQIfs538l/rDlWZlbWWllJ1lhzkPx/zzOfteaca2W98x3v+I93vGPC/Jtrr7vm/xdCCCFR5QrnlRBCSBShuBJCiAEoroQQYgCKKyGEGKDDgtYXv/gl5x0hhJDuwsyVEEIMQHElhBADUFwJIcQAFFdCCDEAxZUQQgxAcSWEEANQXAkhxAAUV0IIMQDFtZcwftw42bZ1i/yufKfMnjXLOWqOp3/2E3nr97vl1y+84Byxh1j7wjS2Xk9P7ULsIIYQS9GgJ3/PRDxTXAkhxAAUV0IsZ8fOnTJh4t3yX3PGyfNr1jhHL38enDlTvv2d2+WHP/on50jvguJ6GbHonxeqqYt7w7Fg3HTTTbLut/+z3Wexj+PRRk+p3PZ09vtduZaekJw8SE1du/L7mOJiqovvYeoLvCyDBJt+6ymw3vRUOJjfuzNN7g7ab/hN2Kftdtvi9p++BhP2uf0AGx566KGw8RiItq0npRiK62XE0KFDnHdtjB8/PmjjDxo4UPr3T3D2fAwalCwLHnnE2YsOo0aNbA3QTGdP5I477lCdqrPf78q1dJe4uDiZNGlSqx391T5+f8bf/0C9j8XvmwJiBL8HAr8/vmypuk43aB/TApuQmCCTJ9+tfF5be0JlpcOGDVP7bmB3LMQe7Qw/XLhwQX7605/JyRMnIu4PGGRhZ0tLi7z88ivdni1QXC8jMH3CNMo3lfpHaWxsUMGL7CwQPZXUn9+8ebM6PmBAQsjRujvABtjywgu/VsEIe9CpOvv9rlxLT8Dv4jfQ4cGVVw5Ur7H6fZNAOJYuXeZcwz/JN76RoQYS93Ht9+uuu96fhZvg+uuvV2IFP6545hl1DKKEUob284ED+9Vx3QamSEj8L+p6EY///u//U8VipP0h/gvxMnZstnq/Y8eOHpVhKK6XERjx9ZTm6Z/9tEOG4iZwSoYMzgSfftrc2mkOyOnTp1Uwazr7/a5cS3eBPQ0Njer9xx9/pF41sfh9U2zZsk0JKIS0sLBAXQOyLZ2NnztXr8QE4Prd7WICDEo33nCDen/q1CkVD8BdJsDmnuGY5NqvfVX55s9//kSqa2rUsUj7Q+rQoSoW4N933612jnYPiutlAoIDo7HOFJGZIABCcffdE1SA6cxNZw2xItzvZ2Vldulaok2kvtRZODKb4cOHO0e9x52F6Ywc5Zgrrvicej94cIq6RoBMHNdhEoj3nj171evo0Wn+0sp3vvMd9YpZjdtW0xw+ckS1LURSl4Ei7Q+wERs++4Mf+L7bXSiulxkIGGRayFgQAJ2BETqWWUMg4X6/q9cSbUL9vs7CIUozZz6oPtMvPt456z3urFvXXi9caFaiEpjR6gztP/7jf/uzWRMcP3681W8fKp+h9qqn2tqHbltNc+niZ7JvX4V67xZ7EEl/+P3vf6/aH/b2ZJGV4nqZgI6BDqIp/93v1OgcCj11BPgcPh9Lwv1+VdX+Ll1LtOnMlzj/5ptvOnu+bOaPreJhK/DzL39ZJmVlz8mSgsIOvkS2FovbnV5++WVlCwatwoJ/kWPHjvlLEvBhLGdPT/7bcvWbEPcf/ODvpKn5QsT9AXXWQ4cOqvcQ4+4KLB/zQgiJOchsIcAQYog/xLC3wcyVEBJTUNbQi4jIJnu6cGQrFFdCiGeg/GKyFuwlLAsQQogBmLkSQogBKK6EEGIAiishhBiA4koIIQbosKCF2yMIIYT0DGauhBBiAIorIYQYgOJKCCEGoLgSQogBKK6EEGIAiishhBiA4koIIQaguBJCiAEorl0gIyNDXlv7qnro2qP/9I/OUUII6Ui3xBXCAoF5fvWvnCOEEELcdEtchwzxPcKXEEJIcLr8fwsgWx0xYoSzJ/Kf//mf8uqra1u/N1AmTpzoHPWxdetWeeonP/V/B490WPHMz9W5BY/8d/WUynfffVceXfjPKht2f19/try8XHJyctTn+/XrJzt37lSP7MV33Z8JR+DfPnnypMzOm6Om+f+yeFGr7YOcM+K3R/PU8n+Tb3zjG+r9e++9JykpKerz+tqA+zPAfY4Q0jf53KBBVxY77xX9+yc474Jzzz258qUvtT2t4P/8n/8jhw8flmuuuUaGDh3qHPUxatQo+fznPi9vbNgomTfdJF/84hclMSFBvvKVL6vnwEPk5s3/70qcvvWtbznf8oGnNuI7DQ2Nav+bY8dKfHy8fPWrX1XnAF7x98I9JiLY3/7zn/8sza3CDGGFTW5wDWmjR6u/GSiaycnJ/kcw//GPf5S977yjBo7rrrtOHdPo666uqXGOEEL6Gl0uCyDjQ3YHII53TZgoL/z61yrb+68549T2T48ulMbGRvn85z+vMtrq6urWbG6bynIhVtiQdb7SmvEie7z66qvV38PfdX8fQjbhrvHqnAZZIT6D3wZJSUnqNRjIeK+99lr1Xv9tbCprTU/zZ7//3xNPquP42wDfycvL62AXPofPa/D3Ibi4rv/xP15Sn8Fncd033niD8ylCSF8kancLIMvDIhe2nzy1vN1UG0CAP/zwQ2dP5OjRo2o6j89B5CBQhw8fUecgxs3Nzeq9G3ymsfEj9f78+fPqNaE1c4VAB2PYVVepUgIEcdv2Hc5RH7pu3NDQ4C8r4G/jN8CAxMQOdkHw3eKq/z7E9O///gF17e5MlxDSd4mKuOoMEeKDrDMwwwMzH3xQrmoVI83o1qk3jmnBcmd7EEuIZk853Srmly5dUiKJTBXgby997DE5e/as2kfmCfsBsmzY4aadXenp7UoiGnfmqjd33ZYQ0vfokbhikWr7tq3yrW/dpvaRhSJrRS0TgqaBeN1773QlVJh6Y0qP99/+9rdUlvrBBx+ozyHrc2e+wTLOroCMFJkpwIKW/tupqUOluuag+vuwE/binF70Qlb99IoV/u9qu5CdusVXZ+M4pjNXbLgXNlQ2TQjpG3RLXCF47sy09v1aJUiaXW++qTJSMHDgQHloTp4SMRwr/90uVWvF9yHOKCcgy9P1Tg0+++P/t6jTOwE6w10j1qCkgL+Lv6/t1MAOnXU+8/OV7c67r0uDv6/rv4QQouFjXgghxAC9QlwDb5nSIAvl/aaEEC9g5koIIQaI2q1YhBBC2qC4EkKIASiuhBBiAIorIYQYgOJKCCEG6HC3ACGEkJ7DzJUQQgxAcSWEEANQXAkhxAAUV0IIMQDFlRBCDEBxJYQQA1BcCSHEABRXQggxQJ8R13Xr1snOHTskOzvbORI5Pfmul8Be2F1TXa22srJnnTN2UFxc5Ldt7569MnnSZOdM9MA169+oqqyU/Px854yo38Pv6vNoZzeB52Hv5UCs2h1/N/Bvd+ZTd3tgM9XuaOfNmza367M4hhgIZVu027tPiCuciqe5gqysLPUaKT35rtcsXrxYPm1qkvSMDCkoKJQbbxhtjUDAr+PH3SXPlpUp+w4fOSQLFjwS1QEMnSW+X7z6+9g2bd4kD/zgAX9nHj9+nLz08kvq3ENz56p21mKBzyxZskR27Nzu998dt9+h7LYd0+2uRWhs9ljnSBvhfArw/0Xvq9inzmO75dZbVLtEE4jmw62/3a9fnHPEx3XXXivPr1nj98uQwUP8fjHR3n1CXDMy0qX2RK3a9JNeI6Un3/USBMvApCT/M8gQwBCwtLR0te818OvZc2eltLRU7W94Y6N6THk0BzBc84MzZzp7Ilu2bJXm5ibJGpOp9h9ZsMD/+xUVFbJn7x4ZNXKUEnh8Bp/FdwD+1tFjR62PAdPt7hahP73/vnO0jXA+1dTV1Tnvoo/ORte/vl69unHbBr8g/lJTU9W+ifbu9eKKRr0qdZhUV9eoDYGHANHgvXsq4B5lO/suwMinv4u/s/bVtR2mG16AYMFjxauqqpwjEvIaYg38ig538GCNc8QXzB+dP69E1xQpySlKwOvrfU/1DQQdDRkfRCEYEAVkYm6hsA3T7Y52QrZZXFziHAmP26fwm54FmmL69Olq6wxkpPAJBvVQ9LS9e7246kwIwYYNgaczFzA7b7Ya2fU05o/H/+Sc6fy7EFZMbTGFwPcxHfrKV77snCW2kXvPlA7Co4HwYPqsBb+qcr8kJCTK3Xf7HreODnbrLbeq9yQyAn2qmTZ1mkpGAmvgpkEb6lr0tKlTZeE//7MaLICJ9u714oq0/sO602rkxIbpfeAUST83DOf/bfm/qfegs+/iPYRZNxCmHAfePaDeE7vAjAQdfcWKZ1RbuoEIYKqLttQZGdoUgyXOoTOWrlolZ86cUedI5wTzKfw+bvx4lYhgg49nz5oVM4F1//76119Xbaprribau1eLKxyFojUK73AYNrwffvXV/gbVUwicc98R0Nl38TlMGUzWj0zQ1NQs9Q31zp59RNufOlvBABps8QSdCxs61ty5DztHfWCwzBozRnVGvH528bOwZQObiWW7h/OpG4juqQ8+MFoKCgXaFrGA7FT3+Wi3d68WV12kxnRfj5bYAhsUAovjyEyXLV2qnN3Zd+FwOF4XxDW2PD0XdUXUF1Fn1MDui5cuei4OwXyHwQw1sFD10O6AdkR7YlElWB0OAoDOlT9vnn+hIxT4W4F1Yhvxut274lONjQlKNNq7V4srpu0QzMCggsPguL//+wflxV//2j9yuRu5s+/iO42NDWqqCWEAyGiR2doAAhsLRKgpA9gYrP7lFVjNhj16BhGuHtpddP1MrwC7QftBBCC8kYjOnDl56jXY37IJL9u9M5/ClieeeMLZ8wkxZoeod5oGtrn7OmzBekmwPg6i0d69VlzRadFwWCkNRBevv/zlkZI4YIA8V1ampv1wNmpyWMjq7LvouJjyoKa0bNlS9X0Uyd977z3nk96DQEbpArbBRtw+E+kqr2kgArAH9yPCPgxYBYWFEQldV0hJSfG3r97cd3PoxRW96UUWdEL3jfim7DOB1+0eyqfg29/6tv84+tvjjz/eoVRjArSbu6/DL+i7umxhor35mJcog4UTlAYiuR2EENJ76fV3CxBCiBdQXAkhxAAsCxBCiAGYuRJCiAEoroQQYgCKKyGEGIDiSgghBuiwoBUfH++8I4QQ0l2YuRJCiAEoroQQYgCKKyGEGIDiSgghBqC4EkKIASiuhBBiAIorIYQYgOJKCCEG6PXi+tratVKxb59/w35nZGVmyeZNG6WwoMA50ga+v2rVSmfPbvR16Gs3aTf8Euivzn4f+/ocPofPmwJPPFi/bl2735g4YaLsfnO334ZgNgZ+JlhMmAS/D9/gNZBQ/oON+rgXNofDa3+GI9r9pdeKq25EkD12rH/7y1/+EjRQeyMLFz6qnvqJ6y4qKpYbvn5j1IMZorXn7bdl1KhRzpE2wv0+AnfkiBGSnz9PnT9x8qT6vAkg/Hl5edKvX5xzxMfw4VdLS8tFZZuOj3nz5jtnfddWWFgg5eU7/eeXLlvmnDUPfFRSUiwJCQOcI23gmtz+mzR5ilTtr1ICMXLkSP/x1atXS07OOHUtXgPb5s/PlyPvHbbONhDt/tIrxdXdiPfdf79z1Aee5rp1m90PmYsGGECSkq6UXbt2qX1cM/wxevRotR8N0Cm+//2/k9/+dp00BDy2OdzvKwFoFYZ33vmDEgSwaeNm9flodzQ9U9mwYYN6DQSdqaEh+BNn77zzTqmuqY6poGr04LN27WtqAHADH8FXK1eW+v2nwf6chx7yH3+2rEzOnTsraelpat9LMjNvUk+mRVsDm2wz0V96pbgGNmIwAqcAyHK7k9HiO+5pTnf/TrSBD/A01f37DzhHRA7WHFQBFC370Dluv+N2eeutt5wjbYT7/ezssc6RNiBw+HxycnQfTY7BNXCA1eC3ArNZDXyUmJgQNoZMggwa2Sge7x4IxOjY8eMRJQmIc1zHmbozzhHvgN3nz3/czu5Dhw6pQQR2eomJ/tIrxRWdBo4KlZEAOPM//uOomgJgCtXc/KlMnjLJOesjNzfXL5p6c09/4fRFixb5pznY8B5Zs9fBYjO1te+rMsDNN3/T76cJE+5qbbe2Z+3HCvxmaekq1bY6ywUoGVy61CL33jvd3/am68KRMmjgIPnsr59FVLuEX1FWcIsGiQ29fkErFMi6/ulRX40PUyh0dgStG0wltWjqrba21jnrE2iI8prnX3CO+Ka3yJpxjoQGmRmm5FrYMjMzO5QWTIPpvm5XDLDI8NwCi8dyX7x00f8Z2GuqLtxVMltF/sknn1R2hapdQnAnTpwor776SkRZLokuvVJckbFC4DqbYqIj6ZF/TNYY52jkDE0dqjqcu+5lanobLcLVGGOB+/cxXdfCVVb2nGozr2xDG27YsLHdNPDCheZ2ZQHU46JZVukJmCFpwQxWu0RsY2awYMEP1XmbCexDNtGT/tIrxRVTIAhcuOwRwdf4UaO/c1dWVTpnIgd1LGQ7gVNFTCe9FDCA3w8cYND54JdYBHJXfz9YzcsLdGc6deoDZY+NIG7DoWNb30FgC8H6CxaMOrueWGCiv/RKcYUzsBKNmmngvWrPtY7i+f/gmwLqIj8aG0X1rgIhQD1r1uyZzhFR77FI4rVIIFvB4sHMmQ+qfWRbuLUECwixoCu/j3OY1rrvHogFjz32mD8LRQzk5k6RujN1ygZkhRBabT/A3QOBCzJegIUW+FKXAfA6ePAQdVzfSeDVQlw4tm3brl51f3Hb7TUm+kuvrbminqbvVdNTf2yXWi5J6S9W+cUXx1aseLp1hGpxvhk56GSoe7l/AyJdVFRiRcawfPlTahCBXbhfEvdrxvK2onC/j3qg9pkXtgGIEH4bNqD2i7q7+z5XfZeBthOEuvMglkAIUEedMWOGsguv2NfT//79E/zXpTcbFuPQJ3D7mO4vgXZ7TbT7y9/wMS+EEBJ9+uzdAoQQYhKKKyGEGIDiSgghBqC4EkKIASiuhBBiAIorIYQYgOJKCCEG6HCfKyGEkJ7DzJUQQgxAcSWEEANQXAkhxAAUV0IIMQDFlRBCDEBxJYQQA1BcCSHEABRXQggxQJ8S1/z8fKmqrJSa6mq14T2OdUZxcZHs3LFDsrOznSOXB7AXduvrLSt71jljB/Crtm3vnr0yedJk54wd2O6/UNhsN9oYba1tQwxEk3Xr1vn/dmD/DvxtbMF8g8/Bfz2Nxz4jrnDi7Fmz5Pk1ayQ9I0NteH/dtdc6n+h9LF68WD5talLXWlBQKDfeMDrqwdxdEPTjx92lHvEB+w4fOSQLFjxi1QBms//CYavdaFu0MdoatqHtEQORJDiRADH89C9/UX8b24F3D8i0qVP9MTV8xHBpabmkfKI/M3fuw+qcBjqxbNlSSUhIdI50nz4hrggsX4CVSGlpqXNU1PtHFixw9noXCLSBSUlSXl6u9jdt3qSCOi0tXe17TUZGupw9d9bfHhve2KievpmV5e1znjS2+y8UNtuNtkUbo60B2h4xgFiIBrjWB2e2PSy0urpG/V5KcopzxPd03/qGemevPRDWUSNHycsvv6JEuKf0CXFFYCHA4PxQICjdU4ZIygD4zu9372438kLII/muabLGZPoeC1zV9qBEBBs6Huz2EvgGQXzwYI1zxNcxPjp/PmodrafY7L9w2Gw32hZt7O6HiAHEgon+kpOTI0ePHfX/XkpKsnoycyiQxY4bP16ampucIz2j14srGm1AYqLU1dU5R4KDoNyxc7uaKmDagGnB3Xf7HrtMCLk8QHKjEyQId+C0PyUlRT1eH+dRnzVJn1rQCgdKBtgARjpMV1JTU9U+IeTyAH1Y11MxY3XPIt3nHpo7VyVdJgW214trRUWFKu53JpRoAPcK65evucY507sIV3Oygc5mGF5ju/9CYbPd6J/op9HmiSeeUK/BZqD4vfWvv260XNInMtfO6jo4vmzpUtmzd49/ZPvT++87Zy9P6usbOhTzUfO6eOmikUDuCsEGPAQ4Ah1224DN/guHzXZj4ES26O6HyC4bG71rc5ODTp8Q1y1btqrXp3/2dLtRCgtRz6xYoQIRAak7Nj4zZPAQ9T4caBQsHuhFGHwPt5bYAFZisXgwO2+22odtuGPCvYjkJVjNhj16MTD3nikdFmK8xHb/hcJmu3U/nDMnT72i7dHPsOAWDVBvdd9yht/B2klV5X61j0wW/gAQeNym9WHdaWODzt/0pScR4FaLsdljnT2R5uYL8vjjj6saq/scjjc3N0ntiVpVEEeDTZs6TZ3T1NfXS0Fhobq9BPfPxsXFqe9VVVXK9ddfr855nSnojBxFfLD+9fWq7mQLbr9qf9qUFdruv1DYbDfEbcmSJa2i119aWlrUveb6dryeArHWfRG4+zcI7P/7KvZ1WPAC+Dv3fe97snz5U+3ubOgqfUpcCSEkVvBuAUIIMQDFlRBCDEBxJYQQA1BcCSHEABRXQggxAMWVEEIMQHElhBADdLjPNT4+3nlHCCGkuzBzJYQQA1BcCSHEABRXQggxAMWVEEIMQHElhBADUFwJIcQAFFdCCDEAxZUQQgxAcY2ArMws2bxpo1Ts2+ffVq1a6Zy1l0C7bbO5sKDAb9vuN3fLxAl2PcrcBv/BJ7DB7Ztg8fja2rXO2fZ+xbbn7bfl4blznbPegutAW2vbYKstRLu9Ka6dgKBcseJpOXHypGSPHau2/Px5Et8vXjWGzSxc+Kh6ABtsLioqlhu+fqM1wQy/5uSMk9WrVyv7jrx3WObPz7fKp177D527pKRYEhIGOEd8JCcnq2e+ad9hu+/++52zIkNTh0ptba3/3K233SbPlpU5Z70DbYs2RlvDLtiPGLBF+KPd3hTXMGCU/f73/062bt0q8+bNd46KVO2vkjkPPaRebQW2JyVdKbt27VL7W7dtVUE9evRote81aelpcu7cWX+n37RxsxKMzMyb1L7XeO0/COvIESNk7drXpKXlonO0DTzM8dSpD5y9jjR+1Oi8swe0LdoYbQ3Q9ogBxILXmGhvimsYEAzNzZ/Ktm3bnSPBcU/DbJmCwXZ0wP37DzhHRA7WHFQBhEDyEmQwEI5Dhw45R3zBfP78x1Z0NOC1/zCYT5o8RT0oM5Dhw69WIhWKQQMHOe/sAm2LNkZbaxADiAWvZywm2pviGgZMrzBNCJehQlgxtcE0AtMJZLm5uVOsLxmQy5v+/RNUyQADOuqEgfE2JmuMf8C3pRTU16C49hBMGzB90KMxstxLl1rUSEiICTCdRh1V11SRAJSUFPkFFvVXfQ51zYkTJ1JgPYDiGoYzdWckMTEhZBaK4zjvzhJKS1fJVVddpRYdbAQdsaGhwdmzD/jcZmz03wsv/DpkvRpCXF1TbU2tPRidzQ69pCftTXENA+ov4RZZEBBw/oYNG/yZgt6WLlvmfMobEBCw3S3yqHmhruR1IGu/oeyi0QsKtgiXzf4LBuyyfYErWLIC0bfBNhPtTXENA6b6x44fl7y8vHbTKgTHr557Tr2iII+aq9eLRIEgY8HiwcyZD6p92IdbS9yLSF6CVVnYoxf/Jk+ZpALZvaDgJTb77x9/9I/tFk1hIwYrxCti8idPPeWc8d3yBruxOOM1emF41uyZ6hW2DR48xArbTLQ3n0QQAQiCGTNmSFxcnHNEVLaqs1PcNoPSgKahoV6Kiko8z3DQ0VCLS05OUftum20AA1Zubq56b4vP3NjgP8Ted797r/z0p0/76/puvwHc06rvcw20uaWlRV588UUlHjYA0Vq0aJH07/+31tkW7famuBJCiAFYFiCEEANQXAkhxAAUV0IIMQDFlRBCDEBxJYQQA1BcCSHEABRXQggxQIf7XAkhhPQcZq6EEGIAiishhBiA4koIIQaguBJCiAEoroQQYgCKKyGEGIDiSgghBqC4EkKIASiuEVBcXCQ11dX+be+evTJ50mTJzs6WnTt2qPOmyc/Pl82bNqvfDAbOV1VWtrMl0G6cx+eiBXwAX+i/v27dOueMD+0ffb6s7FnnjA/s63PapzbRmf2mCfSvu207812473pJrOzqrL/gdwP7Q2B/6altFNdOgGCMH3eXFBQUSnpGhtp27NwuWWMynU+YBzbgcR/9+rU9ZiaQnJycdo+hAampqfKn99/32501ZoyUlpY6Z3vO+PHj5KWXX1J/+6FW+wYkJrYToMWLF8unTU3qPPx34w2j/QGLV+xrvx4+ckgWLHgkZGfwgnD2mwadHr+FWMPvYysuLlHnOvNduO96CeyDnbAXNuHxLuhb0RzwQWf9BXbcesutzp4PHLtm1DUqjqNlG8U1DBAKCMYPf/RD2bR5k3MUwV0Ss2DV2eD619er12AgAGDnJ5984hxpo7HR3NNUH1mwwC/WFRUVsmfvHhk1cpQKVGQoA5OSpLy8XJ2H/9Cp0tLS1T6E/+y5s36/VlfXqKdvpjjPL/Kazuw3DQbLA+8eCBpnnfku3He9JCsrS9m54Y2Nah+xg+vIyIieTyPpL3ff7XuYaHNzs3oFiN8ZDz6oXkE0bKO4hgACAaGAYGiHhyLpyiT/VCfaU+/p06erLRSwc9rUqbL/wAH19FQ3gwa1PSY4FqDTI9ODv5DZq8cSV7U9cBAiAMGCcOH9kMFD/L5CEH90/ny7QcxLOrPfJPj7GCy1CAUSznedfddLgrXxwYM1/gE5GnTWX+CfO26/Q/XrcMAe+LGurs450nUoriFAFoBRtr6+88wvK2uMPP7442o6ceqDD5TYRStYOmPOnDwlaHrEDmRs9tio1ZDCgaDFVBWdJRKQGaCkMHvWLGUbBoJwnaIvMXzE8FZhb5Hvfe+/+dsOtV8dU+F819l3+zqz82bL0WNHW5Og/c6R4CC7TUhI7PRz4aC4RgHUtvRojGlkrKa3yFyu/dq18vzq550j7UGH0zU31JAggCYEFn93yZIlatoc6VQUdmAQyp83T9kHUQ62MNNXGTw4RT67+Jm//TCAogYMOvNduO/2ZeA3ZKO/+tVq50hw8Dn4EgNYT2ZSFNcQ1DfUq2lhSkpsp9aRgsZ/4AcPyJu734woAJDtoA4X7ZohAhEbAnHu3Iedo6FpamqWK5MGqgUFd8kFoowaVywXCrsD7EdsmAb1QPfUHoM2ShKPPPJIp74L9V1bBy5dSjIJEhEsUK1//fWwv4UZIPyLgQt9pidQXEOABqg9URuzBYyugo6UkNC/NYOZpqZ+z7VmpikpKWo/VIkARHOBC6IaKhBRTgnM4FFzu3jpohw9+r+dI/YSzn7TQnDq5Ck1sHeHnnzXNKhfInN0lyjQv0wuumrQdugvuIsA/WXZsqXypS99Se3rO1zQb2DLuPHjo9LGFNcwYPTHwkFgzUpna16CbEVP+7DhFpL6+nq1SopyAOx9ZsUK59O+kRs1USyGRAP8/cAMyg3EFosXqHEBZE26JqsHLnxf+xX+hK97UuOKJuHsNw1mIsjm9G8D3AEAe5555pmwvgv33Z5McaPBli1b1SvWCQBiEnZHKybDgVmVu7/gNjbcXYNyGc7BFmT30VwIpLiGAcF4y623qGBFZqgXCBDYOlBs5vrrr/fbjMUPTN17OtUJRGfOenPfLfHEE0+oTAXHkSmgNq1rsghoiIT2azRqXNEmnP2m0QtU2q9AH+vMd+G+6yUYVFeseEYNUrDLVEx2l4SEBNXO2m/YerIYyMe8EEKIAZi5EkKIASiuhBBiAIorIYQYgOJKCCEGoLgSQogBKK6EEGIAiishhBigw32u8fHxzjtCCCHdhZkrIYQYgOJKCCEGoLgSQogBKK6EEGIAiishhBiA4koIIQaguBJCiAEoroQQYoBeL66FBQVSsW9fu+21tWuds6HBs3V27tguEydMdI60gb+5edNGycrMco7YCeyDnfq6V61a6ZyxA3fb7H5zd1Bfe4nt/guFzXajjdHW2jbEgAnQf9evW9eujwb+djjfQCN62sf7ROba0FAv+fnzJHvsWLXdd//9zpnQ7N9/QD3obfKUSc6RNkaPHi0nTp6Uqv1VzhE7WbjwUfW0UlxzUVGx3PD1G40Fc1dB8OfkjJPVq1cr+468d1jmz8/vUTBHG5v9Fw5b7Ubboo3R1rANbY8YQCxEEwhjXl6e9OsX5xzxMXz41dLSclH5BL+Pbd68+c7ZNmDPsGHDnL3uw7JACCCcENCRI0Z0GP2Skq6UgzUHnSN2ou3ctWuX2t+6basKagwMNpCWnibnzp1VD4gDmzZuVk9bzcy8Se17je3+C4XNdqNt0cZoa4C2RwwgFqKFnpVu2LBBvQaCQaehIfzTZu+88045ffq0s9d9+rS4YkqAxsCrnia4SwYQ0ISEAe06PN4jo0Vmi0BG6cA98iJDsKFk4LZTg+tBx4PdXgLfYNA6dOiQc8QnAufPfxzVjtYTbPZfOGy2G22LNkZbaxADgQlMT8CsNNTMNDk5uUM2Gwj6b2Jighw7ftw50n36hLgmJ6dIaekqv4C6p0ijRo1Sr5gioHQAx+o6DAK0uflTf4dHANx88zcvi5IAIaQjbi1wJ1IAg893vvPt1qx3o1z87DPnaPfpkzXXpcuWOWdEamtr/XUXCOY77/zBP5IGlgaQFbinNYSQywf0e60BOpFyC+zMmQ+qjFWXqnoKa64BoB5z6VKLs9e+FhhsWnO5EUnNyUvO1J1x3tmJ7f4Lhc12w7ZYzwTxe8hQdbkEs1WI7ZrnX3A+0XMorgEE1mV0LXDMmDEd6oQ2g46EQQHXo8HggHqc1yUN/D461NDUoc6RtoUYWwTAZv+Fw2a7MXBCwNz1VSy0NX7U6OzFHsRhUlKS6tvukkFubq7aX7Hi6W7fzdDnxRW3XGjnoYPj1hCUBtyBCEFNS0tTi1vuhQIEMoJW12T1920AUxsMCpjqANiGW3JsGRywmg17tO9xy1vgQoyX2O6/UNhs97Zt29XrrNkz1SvafvDgITG78+axxx5T/gAQ+NzcKVJ3pk5efuVlmTR5ir9kgA13G6CcuGDBD7tdJuiTC1ru1fz6+nrlZBwvKSlWt624a7IAHf7Chb+q20bcJQEIMKYWGekZ6vuLFi1q/aw9Wc3y5U+pTEFfW3n5zg7X5hUIWNiD+xFhHzKHoqISq7JCm/0XDlvtRtuuXFmqxB62zZgxQ1599ZVui1dXwcwI/sBvQw+wnhLsPtdo8Td9+TEvqLMMGjgoon9UQAghXYE1V0IIMQDFlRBCDNCnywKEEGIKZq6EEGIAiishhBiA4koIIQaguBJCiAE6LGgRQgjpOcxcCSHEABRXQggxAMWVEEIMQHElhBADUFwJIcQAFFdCCDEAxZUQQgxAcSWEEANQXCMgOztbdu7YITXV1f6tqrJS8vPznU/YSaDdZWXPOmfsoLi4yG/b3j17ZfKkyc4ZO7DRf8FiMZh98CV8qs/B1zZgq10g2u1Nce0ECGjpqlVSe6JW0jMy/NuBdw9ISkrbQ+BsZPHixfJpU5Oyt6CgUG68YbQ1wQy/jh93l3rEB+w7fOSQLFjwiApwW7DRfxUVFTJu/Hh/HGKDDz/55BPZ8MZG9Rn4Fnbu2Lnd/5ni4hJ1zkvQtmhjtLW2GzFgS5IS7famuIYBwTBt6lTZtHmTzJ37sHPUB/ZtCNhQIEMYmJQk5eXlah/XgKBOS0tX+16TkZEuZ8+dldLSUrUPYcBTS7Oy2p4M6iW2+89NTk6OHD12VNmo9zH42xafaFu0sR4E0PaIAcSC15hob4prGO6+2/ekyC1b2h5KGMi6des6TB9wDJuXZI3J9D1OuartgX/V1TUqgBBIXoJBa9TIUXLwYI1zxBfMH50/b0VHAzb7zw2yPtikBQu2DUhM9O/bBNoWbawHAYAYQCx4PWMx0d4U1zCkpqaqaQKmYqEIDI7AEZAQkwRmrcNHDG8ViRb53vf+m792iDqi1+LVF6G4dgEEaGDBW2e1OssNNgISYoJQWergwSny2cXP/PVWJAioJ5LYQnENQ11dnQpePeq7FxP+9P77/mNY7NK1Gbzu2bsnbLbrJU1NzVLfUO/s2Qd8bjM2+Q8DOYTTPc0Gzc3N7QQXsyjbyhluOpsdeklP2pviGoaqyv0RLbLo2sw//MM/KDHG97ymvr5B2Z6SnOIc8dW8Ll666Hkg4/fRoVB20ehyCuy2AZv9p8FA7q5bg1MnT6mZk40EJisA19DY6H2bm2hvimsYkBG8uftNeXju3LC3ZGDVE4X6799/v8piAzMJL9A2zc6brfYhXri1JLAzegWyKdijb8PJvWeKVeUU2/0XajBC7GHg0nYD1GUDF5K8QJfQ5szJU69o+yGDh6jkxGtMtDefRBABCILZs2ZJXFyccwQjXb0UFBb6RzWILxrk+TVrVEPZADKEZUuXSkqKbzRe//p6q27Pgc+mTZ2m3gf60wZs9h9ictLdk6TkX0uC+gx3q3z5mmvUe5Swpk+frt57DfrIkiVLJCGhv7S0tPTq/kJxjRIQiltvudU6gSCEeAPLAlEAozH+pYnNC1mEkNjCzLWH6OnXvop9Hf4VFyGk70JxJYQQA7AsQAghBqC4EkKIASiuhBBiAIorIYQYoMOCVnx8vPOOEEJId2HmSgghBqC4EkKIASiuhBBiAIorIYQYgOJKCCEGoLgSQogBKK6EEGIAiishhBigV4prVmaWbN60UQoLCpwjbby2dq2sWrXS2QsPPluxb1+7DX8Xf/9yQPtB2x7pdccKtI+2bfebu2XiBN8TdE2AR/WsX7cuZNuhrd3x4rbNvZm2MxrY3O7wHXyobQvWR70i2n5j5toJlVWVkj12rH/D0yBXrHhadVbbWbjwUWUv7C4qKpYbvn6jNcEM/+XkjJPVq1cr+468d1jmz883MnBBOPPy8qRfv7bH9Ghgx56335ZRo0Y5R3wsXbasXbtjq62tVXZu3eZ7FpSt2NruaFu0MXwI29D2iAFb+lK0/UZx7SL33X+/VNdUy5133ukcsRNkCElJV8quXbvUPgQBQT169Gi17zVp6Wly7txZebasTO1v2rhZPX0zM/MmtR8tIKxgw4YN6tUNOvX3v/938tvfrpOGTh6fjM/Cn7DTZmxud7Qt2lj7EG2PGEAseI0Jv/V5cXVP/5DBRDKKHqw5qBpCTw8xfdB/A5sNWQICGU9T3b//gHOko91egQxm5IgRcujQIeeIL5jPn/846h0NgyG2YKBz337H7fLWW285R0KDwfTY8ePWZ602tzvaFm3s9iFiALFgYsbSFUz4rVeLa25ubjvRw+ae/kEEMS3BFABTga1bt7Z+Z0qnDX3q1Afqdfjwq9Vn4/vFS37+PPU3UEa4+eZveh4sJHpcLlkrsYteLa6YCkLw3BvqZhqk/O4a2rZt21tHr5YuTU2r9lfJnIceUq8Aox2mPsnJyWqfXP4g47ocslZiF322LIDMMjExQcZkjfFntaWlq+Sqq67qVBiRsQKdwbpLC1g4iYuz979tRMG+oaHB2bOPM3VnnHd2gDhJHZqqBs3LGZvbHbbp5MQ2euK3PiuuaEw4Llh2i5XicLjrbxBWlAF0WQAroC0tF51PegcCIjCDRgaGupLXgax9PzR1qHOkbUHBNgHQsxh3Lc5mbG53DJxIaNwlM8weGz9qdPa8w4Tf+vSCForpqLlGWrBGUOA+OATImudfUMcgEO6RFw1iQ+aKxRosHsyc+aDaxzXi1hL3IpKXYFUW9ugFxMlTJnVYULABW4QpUmxud5TdwKzZM9Ur2n7w4CFWzApM+K1PiysyVNRcS0qK/dP6wH8kEFg2eOedP8ikyVP8nQ2LHAgQ/RlMIW3IXMHy5U+pgQB24RrLy3d2mpXHCgQz7EEZBfZhxbioqMQ6ERs0cJA1A1Kk2NruaNuVK0uVaMG2GTNmyKuvvqJiwQai7Tc+5oUQQgzQpzNXQggxBcWVEEIMQHElhBADUFwJIcQAFFdCCDEAxZUQQgxAcSWEEAN0uM+VEEJIz2HmSgghBqC4EkKIASiuhBBiAIorIYQYgOJKCCEGoLgSQogBKK6EEGIAiishhBigz4hrdna27NyxQ4qLi5wjbaxbt07Kyp519sKj/05NdbXaqiorJT8/3zlrF4G2RnqNsQJtoW3bu2evTJ402TljBzb4Dz6BDYG+Cec7vMcxL+0ORaBtwfqjV0S7vZm5dgEExtM/e1r27N0j6RkZant+zRpJTEhU59EYEGpbWLx4sXza1KTsLCgolBtvGG1NMGNAGj/uLvWID9h3+MghWbDgERXgtuC1/xBPy5YtlQQnvjThfIcN73HMtnYPtA324zpsSU6i3d4U1y4wfMRwaWm51Jqt7neOiJSWlsq/Lf83Z88eMBAMTEqS8vJytb9p8yYV1Glp6WrfazIy0uXsubPKf2DDGxvV0zezstqeX+YlXvsPwjpq5Ch5+eVXVMy5Cee7lOQU9b66ukadg934bGpqqtr3EtgH22AvgP2wDdfjNSbam+IahMCpi54enDp5SuLiWoN4TKbad4OMdWz2WPnyNddYMd2BjeqppVVtD/xDh0MA4fq8BBkMhOPgQZ8AAATzR+fPW9HRgNf+mzv3YRk3frw0NTc5R3x05jv9PicnR53ToqHF1ktgH2yDjRpcB64H1+UlJtq7z4nrtKnT/KKpNwiiBo5csmSJ7Ni53T89uPZr16qpC4LipZdfUp8JrHNNnz5d9lXskz+9/776XnFxiXOGkNiCWAR6kH/t3//dn+WS2NHnxHX96+uV+Lk3CKIGI1hza7awZctWtQ9BPXrsqD+jQpBmjRmjxBf1MJtqrIQgA8SiDDJCxHb+vHmtCcXUHi/OkK7DskAAqE2lpKTIc2Vl/swW0/1Bg5KdT/hAZvrQ3LkyIDHxsgrcpqZmqW+od/bso66uznlnJzb7D767++6J6r1ODioqKloTitflqtRhnk+9Q4FFJNhpIz1pb4prAAhQPbV3b3qq5QYBUXuitoPw2kB9fYNaPMAChwbZ98VLFz0PZPw+OpR7kUXXBmG3Ddjqv8vBd6FA30Iy4hZ5LBg1Nnpvt4n2prgGgDsBhgweEnRBCnXXZ1ascPbaFhdsCI5AUL7A4sHsvNlqHx0Qt5a4F0K8BKuysEffhpN7z5QOCwpeYrP/wvkO8Ytbt3QGixhFWeDDutOeD6o6m54zJ0+9wn70NRsW20y0d595EgGCbNnSpeoe1cDFJtRNIZBYoQVo9NmzZklcXJzab2lpUfez4m4BLHYlJPRXxwEWsfT30CD6PGq7Xi9q6WtGmQPYYJMbDGBYYAT19fVSUFjouQC4scF/iMX7vvc9Wb78qXar7OF8545DgJlYsJmXF7ht0/3KlsW2aLc3H/NCCCEGYFmAEEIMQHElhBADUFwJIcQAFFdCCDEAxZUQQgxAcSWEEANQXAkhxAAd7nONj4933hFCCOkuzFwJIcQAFFdCCDEAxZUQQgxAcSWEEANQXAkhxAAUV0IIMQDFlRBCDEBxJYQQA/SJf0SQlZklJSVF8s47f5Cly5apYw/PnSszZsyQ6ppqmTdvvjoWitfWrpVRo0Y5ez42bNjg/1smWbVqpYzJGqPe439uf/HFF+XZsjK1DwoLCiQ3N1e9v3Dhr/Lkk0/K1m1b2x134/6M14SyPVZMnDBRFi1aJP37/61zRKSyqtIfD4Hn3edME9h+wdoeID6Atsv2dg/0aaz6USRonUh2nqPV0/buk5krGvj73/872bp1a8TOg6Ozx471b7EICNjZL66f/zdhL+zGcYABIidnnKxevVqdP/LeYZk/P18FCezT39NbbW2t+owNwhrO9lgxfPjVraJ1UYqKiv0+0vEAO2AP7MJxfOaGr9+oxCsWDE0dqtpL23Xrbbe1E1bEwO43d/sHXo3N7R7oU7Q9YgCxYAMLFz6qnvYK26LR3n1OXN0NbMuIGQp0Bjy+W7Nt23Zpbv5UMjNvUvtp6Wly7txZf6fbtHGzeoKlPu8GAZyUdKX6jA10xXaToDM1NHR8wGRycrKy52DNQbWPtoC9EL1Y0fhRo/OuPTr7Ky/fqYQzHDa1O9oWPtW2oO3hU8SC18Cn8NOuXbvUPtobGjF69Gi13x36nLhidDpx8mSHjBUjVMW+ff5NT7fCgQbZuWN7u5EXf2fzpo1GMjDd4SEG+PsjR4yQQ4cOOWd9AXH+/MdBg/XOO++UY8ePe569gK7abgqfP30PoQxE2wO/Ad35tNiaZtDAQc67jsC22++4PaLkwKZ2R9vCp25bEAOIBRP9pStA+PEE3f37DzhHRLU12hxt3x36lLjefvt31GuwUsCI1gbW00PUgTAl6K5TTTF5yqQOARAJtmWtNoH6WmnpKjWgorbu5r7771evOFdYWCC/+c1vO9Q8TYIpvx7suzM9Zbt7S5/LXAcPHhJUNDH91iMqxAu1ONTkNO5AR60r1sKLTBqCv3JlqVTt79qz/ZEx2JK92IS7PpmfP08SExP8AotMCjMQZFY4v2DBDyU3d0pEM5poAGHXtqE2OXHixC4LLNvdW/qUuO7e/XtVR0G9KlAcMcrvefttJZ4lJcXSv3+Cc8aHe0ELU7JYBazu5JgmRvq7Z+rOOO98308dmhqz6WxPcdseSzBgbdiw0T8NnDDhLnUcdW6gz8OXsZ7CIlvGXS1dqf9dTu2OundXE4ZYEaomHwl9LnNFSQBFdPfKNIT1u9+9V5Yu9WUyKA9cuNCsznkJ7NO3kOkpqgbBiIZ3L7BAFCAO7mDQC0RdLSWYJFLbvaAnnck0oRa4gmFju2PgxOzAPThhwOjKdZkCbY71DNThNcj8UYbrrvD3OXEFy5c/pV6xuAXgUDhRdyoEZmDmGgx8Ht/TizAQCNxaEi0Cs6dAsLKJUoFeUAtWk+1pgJgiEttN89hjj/lnMOjwmPbXnalTvoIdCQkD/G0QeN4k+K2fPOWLUQAfwVddyUJtbHcdx7Nmz1SvuC6U6WzIrjE7wGLbzJkPqn3EBXzuXnTtKn1SXBFwqF2iYTHlrq09oY7rhY2bb/5mRJkr/g6mihnpGep7KDfsj3Iwuxdc9KbrgggI3I6Tl5enjmPVtaiopF2HQjmhJwFiikhsNw0yZZSA8PvwsfsuEpRfcNM9Bkt9HlltsMVQE1x33bXqd7HhH7u8+uorXVpMs7Hddb+DaHX3ukyCpAuZNWxDXCA+e3K7Zp/4F1qEEBJr+mTmSgghpqG4EkKIASiuhBBiAIorIYQYgOJKCCEGoLgSQogBKK6EEGKADve5EkII6TnMXAkhxAAUV0IIMQDFlRBCDEBxJYQQA1BcCSHEABRXQggxAMWVEEIMQHElhBADUFwjZN26dVJW9qyzd3mQnZ0tO3fskJrqarXZZn9xcZHftr179srkSZOdM3YQK//l5+dLVWWl8ocb+AN+0b/vPg9b9HHYCFs1br9iw9/Gb8QK9BX923gfiL5eL2wLR7Tbm+Lai1m8eLF82tQk6RkZUlBQKDfeMLpDB/YKdKjx4+5Sj/iAfYePHJIFCx5pJxJeEyv/5eTkSFxcnLPnA/7Bb+3YuV39Prbi4hJ1Dp1+1MhR6nHwOF57olbZqklNTZU/vf++/3tZY8ZIaWmpc9YsWkz1bwO3SOGaZs+aJc+vWRNz2zoj2u1Nce2lIOsZmJQk5eXlan/T5k1KwNLS0tW+12RkpMvZc2f9HWvDGxvV0zezsmL72OpQxMp/ENEBiYnyySefOEd8QHAPvHvAL6gaDD4Q1j1790hFRYU6Bt/BVncG2NgY+yfYBvoM4P21X7tWnYPtt95yq/KlLYKqMdHeFNcogNFNTyVsmeZkjcn0Pf2zqu2Bf9XVNSqAEEheogXi4MEa54gvmD86f16Jrg3Ewn/ww7SpU2X/gQPqtzT4+xBciGYk1DfUq++npPgeCz1oUNvjob3m1MlT6nX4iOFq4Lx0qUW2bNmqjtmEifamuPYQCCumt5hGYDoBkUCHsWl6S+xkzpw8NQ0NrEtCiCBC3/vef/MP2rquimwVZQBkgDrG7r57Yquwpqj3mrHZY/3f7cnUtivoARJZtyb3nimSkOB7TD3E/+Kli2r6rW0LVpPtLVBcewimDZg+ILAARmV0DFumt8ROMLvBdPn51c87R9ozeHCKfHbxM3/tEiKs66pz5z6s9p8rK1MCNSYrW+rr69U5MH36dP/3UNNG5hUrgX3iiSdU1q3F878M+KI0N7c9pv7L11yjZiywDTVjfNbUQqHXUFx7ADIHBIc7S0DADxt2lX+KZht49j6mkbZSV1fnvLOTaPgPYvfADx6QN3e/6R+UA4EgucsCqAW6p6huAf3FL36h6tX19R3rrKhtonYbq1o7Mutx48f7bXvrf72ljuvyAAYBXRbAZ1E7RonI1pleT9qb4toDEBzIINa/vt4fTHoLXIiINeho6HApyW3TRdQzMS3TCyFeof2GVW0NRAPiEUwgvMCk/1DfS0joL9OmTvMPyJjWYx/TZAiRuwbbGcHqhYF4scAF4DOUCjCIwKeY1dmIifamuPYQTHFQc+1u0dsUyFgQ1LPzZqt92IdbS9yLSF6CTAz26MU/1OY6E4hYYtJ/GHjdAzGmx8joMEgjI4UQYfDRvw1Qx9Qi5QZ2If703QPIAJ9ZscI56ys/wG4szsQa/dt6BR5t269fnKo1A9iK2jFqyF4P+Cbam08iiBBkFKgXudlXsU/Vv1AzQmlAg45SUFjoecAgeJctXepf7EDn9TqjdoM6ILI1YIvP3MTKf/p3IJDuv++OOdy3CuEFbr8Bt12BNre0tKh7SmN165O7LwT77UD7dB+ygWi3N8WVEEIMwLIAIYQYgOJKCCEGoLgSQogBKK6EEGIAiishhBiA4koIIQaguBJCiAE63OcaHx/vvCOEENJdmLkSQogBKK6EEGIAiishhBiA4koIIQaguBJCiAEoroQQYgCKKyGEGIDiSgghBrgsxPXhuXNl547tMnHCROeID+zvfnO3FBYUqH18bs/bb0vFvn3+bdWqleocwPvX1q519jqCc/o8/ubmTRslK/PyfYorbMc1BPOFDcDH2ja0Y2D7eo3t/oM92jZ3rLr9ig19An3DBnSf1bbpvmsD0W7vyzpz3bptq9x+x+2ydNky54jIhQvNUlRULNljx6rXG75+Y8ROuu/++9XWW1i48FH19Eq3L2wJZnT2nJxxsnr1amXfkfcOy/z5+VYNZjb7D0nAyBEjJD9/nrJv0uQpUrXf9/yxoalDpba2Vh3Hduttt6lHbHsN2hZtjLaGXWh7xIAtwh/t9u7VZQGIb3n5Thk0cJBzpO+ADCEp6UrZtWuX2ocvENSjR49W+16Tlp4m586d9Xf6TRs3q6dvZmbepPa9xmb/QYxg28qVpX5BDaTxo0bnnT2gbdHGaGuAtkcMIBa8xkR7X9biqtP4cKMLRvFAMOoHS/3xPljZAI5HWcI9wuI33VMx9xTNhikuAhlPU92//4BzRORgzUEVQF7bBp8h6zp06JBzxBfM589/bEVHAzb7Dz46dvy48lkwbE0mYDfa2G03YgCx4PWMxUR79+rMFU5Bau/uxKNGjVL7SP03bNggGekZPZ6W4Ptf++pX/eWIV1552TlDSPSBeH7218/C1i7HZI0JeY7Ehl4nrv37J0hJSbEKKryiLOCuyaIWpfe3bdsun3zysSQnJ6v9nhAXFy/Dh1+t3pc991zIrIKQaJDZmuk9+eSTQWuXWDfAcX1u4sSJFFgP6HXi6l7QwuYWVlOgdvTqq6/IjBkzrM8UULBvaGhw9uzjTN0Z552d2OI/1AP1AB6udolz1TXV1tTagwGfhqode01P2rtXlwViCYIYq7IQdmQRXgssAgKLB+6sHJ0PdSWvAxm/j6B118NRwkF9yxbht9l/3VmssmGBCwNnYmJCu/oqRN8G20y0N8U1AuB4OFlnBhACCKgGQqrFFJ9tbv5UvfcSiD0WD2bOfFDtB6s/ewlWZWGPnspOnjKpw4KCl9jsPyy0uH2H18GDh6jjEK6fPPWUOg5wDp/FOa9BGQ7Mmj1Tvbrt9hoT7X3ZiKu7looNxfzs7LHOWbNg5NqwYaNa/MJvL1q0qFUE2kYzCCrqWjhXWrpKTpw8GZNyRGcsX/6UyhRgV7D6s5cgmGFPXl6esg8rxkVFJZ5nhW5s9R985y5D4RX7OA6uu+5adTzYOS9B2+L2MYiWbbaBaLc3H/NCCCEGYFmAEEIMQHElhBADUFwJIcQAFFdCCDEAxZUQQgxAcSWEEANQXAkhxAAd7nMlhBDSc5i5EkKIASiuhBBiAIorIYQYgOJKCCEGoLgSQogBKK6EEGIAiishhBiA4koIIQaguHbCunXrZO+evTJ50mTnSHuKi4ukprpavYKysmdl544dkp2drfa9BDbAFtiHDbbZhPYdtnA+9gov/ef2DTYdXxrYos8Fxpv7XLDvegnaGG1to23Rbm+KawT853+2SO49U5y9NtAYt95yq7PnY+7ch2Xc+PFSUVHhHPGOxYsXy6dNTZKekSEFBYVy4w2jrQnm/Px8GT/uLvWID9h3+MghWbDgkXYi4TVe+Q8+uGbUNfLQ3Lnqt+Ej+Ao+A+j0o0aO8p+vPVGrbAX47hfiv+A/t/719eq7NgxcsA1tjLYOdl1eE+32prhGCII5sOPfffdE9cTITz75xDliD+hMA5OSpLy8XO1v2rxJBXVaWrra95qMjHQ5e+6slJaWqv0Nb2xUvszKansyqJd46T8MzDMefNA/QMNH8BV8hhhELO7Zu8d/Hr6DrRCpwO9WVe6XlpZLMnzEcLXvJWhbtDHsBe7r8hoT7U1xjYATJ06oV4ipGzj+nT/8QT21VIORzoayQNaYTN9jgavaHvhXXV2jAsjrLEYLxMGDNc4RXzB/dP68FR0N2OQ/+GtAYqLU1dU5R9pT31CvbE1JaXsstAYzLvhVD2JegraFLWhrDWIgWOISa0y0N8U1Aj67+JnKFFAC0EGALAGOP3L4sNonxBQY1BMSElUWiowUZQB3LOJ8SkqKeg8Qm1WVlapuCKZPn65eSWyhuEYIAts9bc3JyZGjx462bsfUPiEmwEwImdNLL7/kz/hQ10dt8LmyMiWgY7Kypb6+Xp0DyFKzxoxRtUNg42JhX4DiGiEIbIgpRBWBiqwV04bLjaamZjWNtJVQU19biKX/cKcKMtT8efM6TOuRjUI8sf3iF79QA399fYNztg0IMeqawRZkbQEDha4R20ZP2pvi2gVQiEft64EHHrCmjhUKdDR0uJTktukial4XL130PJDx++hQqampzpG2BYVgAuEFXvsPwtrY2BDRnSfB6oU2goET/cddX8W6Ba7Ta0y0N8W1CyB7hSh85Stf9q8q2gqEHwPA7LzZah/ihVtL3ItIXgL/wR59Gw4yK5sEwkv/6Xq+XlUPB+zC7Uz67gF895kVK5yzvrLC8KuvtmKWtWXLVvU6Z06eeoWtQwYPscI2E+1Nce0iEIVz5+qtzxLAE088oTIF1OWWLVsqO3Zub+1sJc5Zb0Eww56H585V9mHFuKCwMCZZYaR46b+EhAT1m/htvem7UCCY+ligXadOnpKsrDH+8xCJ59essWKWhbZdseIZJVqwbfasWaqWbINtINrtzce8EEKIAZi5EkKIASiuhBBiAIorIYQYgOJKCCEGoLgSQogBKK6EEGIAiishhBigw32u8fHxzjtCCCHdhZkrIYQYgOJKCCEGoLgSQogBKK6EEGIAiishhBiA4koIIQaguBJCiAEoroQQYoBeKa6FBQVSsW+feg3GxAkTZfebu+W1tWudI5GBz2/etFGyMn1PgLUd2Al74Qtsq1atdM7YgW4nbGgPtItN2O6/UNhst+572rZQfdQU6MP6twP7sjsese15+231pIzu0msz1wsX/iqZmZlBhXDylEnSv//fOnuRAScnJiao95mZN6lX21m48FH19MrssWOlqKhYbvj6jTEP5lDAnzk542T16tXKviPvHZb58/ODtpdX2Oy/cNhqN9oWbYy2hm1oe8RATwSsK2CQQR/Oz5+nfh8+gq80Q1OHSm1trTqH7dbbbpNny8qcs12nV5cFrrwyqYMQYuT82le/Kh9++KFzJDLS0tPkxMmTarvzzjudo/aC60xKulJ27dql9rdu26qCevTo0Wrfa+DPc+fO+oN308bN6umbtgxctvsvFDbbjbZFG6OtAdoeMYBYiAWDBg5S/bdqv+/5d4cOHVJi6x7QGz9qdN71nF4rrs3Nn8of/3i8gxCigc+f/1jqzviejw/HYnrgHtn1MT2dwn7q0FQ5WHNQbQheBLE+556C6c3rTAHXiaep7t9/wDkiHWz3Cvhs5IgRKrg1EAG0S6w6WmfY7L9w2Gw32hZtjLbWIAYQC4gJ0+C3kMVrP2DAcYstxDea9OrMddebu1RQ6WkHGvDmm7/ZrlPDsXCwe2QPHGGxDxCw2BC8+hi+P2nyFP9UorKqUk0tli5bps4TQuwAfbK8fKeUlBSrBAhZ6rx5852zPsZkjYlagtSrxfXY0ePtsqEJE+5Sr9u2bVevGoioW4QDR1hkv8h0IaTBxFiD76Pk8MILv3aOEEJsATNR9FudCAH3otZ999/vP4d68MSJE3sksL1aXAFqTxA8TAUCpwEa95QUjkYJQNes8L3Bg4e0G9HwftiwYe0K8fjcd797r/zmN79tN+2xDRTxGxoanD37OFN3xnlnJ7b7LxQ22w3bAvtktEH/hA7ofg3WPP9C6yy0xT8LdYN6cHVNddAkKlJ6vbjCSRDOe++drrJTPdUPRNd+vv3tb6t9XbOC41G/1SuMejt9+nS7+uDMmQ/KsePHe7S6GE3QkVDaSE5Odo74MnKUNEwHcmfg99GhsDqrQfCjfWwRAJv9Fw6b7cbAGbiABPGK5iJStOmJbb1eXAGEMy0tTYlfqKwSpQKMYrm5ua3Cut8fiKGyXXchXt/igZHQFvSgAtEHEC8U8931Zi9BBgF7dPaP2+MCF2K8xHb/hcJmu3U5btbsmeoVbY9ZIRbcTKNnp+4FbtjRr1+cijn045889ZRzxmcb/NYT2/qEuKJRcetVOEdBPPUdBLqDh2t8fCYhYYAsWLBAMtIzWjOFFCktXeUvHdhw4/by5U8p0Yc9KOKjmG/LQhtEAPbk5eUp+zBQFRWVWJUV2uy/cNhqN9p25cpSJVqwbcaMGfLqq6/EbLaHmirAb2ODHbBHx9x1113rPxcN2/iYFxcQRNyOoRuBEEK6S5/IXCNBTwPcBW9CCOkufV5cUWvB7RiYnmL6FKspCiGkd8OyACGEGIBlAUIIMQDFlRBCDEBxJYQQA1BcCSHEAB0WtAghhPQcZq6EEGIAiishhBiA4koIIQaguBJCiAEoroQQYgCKKyGEGIDiSgghBqC4EkKIASiuXWDypMmyd89eqamu9m9lZc86Z30UFxfJzh07JDs72zniHbABtoSy1WvgK20b/Ar/2oQt/lu3bl3ImIJNoeyCP/E9m/wa2IcQA7EG/tS/j/eaQNt62t4U1wjJz89XgXD4yCFJz8hQ20Nz58qokaOsEdNAFi9eLJ82NSlbCwoK5cYbRnsSzMGAP8ePu0v9/7mwD35dsOARq/xog//gp+FXX+3staGFYGy27xHRgUAYli1bKgkJic4R70Hboo11H0LbIwZwjbFAD5YAv49t+vTpaj/Qtmi0N8U1AuD4aVOnyoF3D8jcuQ87R0UqKiqkoLBQvb/77onq1RbQ+QYmJUl5ebna37R5kwqctLR0te81GRnpcvbcWSktLVX7G97YqJ5ampXV9mRQL7HFfzk5OXLqgw+cPR+wbcmSJbJj53b50/vvO0fbgLBi0H/55VekpeWSc9R70LZoY7Q1QNsjBhALsUD30SeeeEK9uklJTlG2VVfXqH20N2xLTU1V+92B4hoBgUHhBgJbe6LWGtHSZI3J9D1OuartgX8IHAgGOqeXYLBC5z940BfIAMH80fnzMetonWGD/5A1DUhMlGPHjjlHfMBXt9x6S+v5EudIe5AAjBs/Xpqam5wjdoC2RRvDfg1iALGAmDAN+uievXtUnw1Exx8GM6AHVy223YHiGgEpKcmqo9U31DtH2lNXV6c6QSwChPQN0LnvuP0OWf/66/LZZ391jpLugr4Z3y9ekq5MkqrKSlVTxau7JKFLBDiHge21f/93/8yqO1BcCbGQ2Xmz5eixoz3q3KQ9/frFyfXXXy/58+apuiqy1Qd+8IAayCC+qMcik8Y5fAalwJ4salFcI6C+vkGVBVCXCQbqMlj4CDbdsI2mpuaQGbgNYBZgM7HwHzo0ZkK/+tVq50jvJpZ9x10W2LJlqzQ3N6kSkK7H4hjAZzBruCp1WLdnpBTXCEDdDWUBNEIgcHxg/dAGgg0IqHldvHTR80EAv48O5V4s0DUu2G0DXvlPx1NKSoo8V1ampqjTpk5T+6WrVsVsZd0EwcpnqIM2Nppvcx1zsYTiGgF6FIMAuG/NQJAsW7pUNVqoxQWvwHQSBXpMLwFsx60ltgwCWIWHPVoscu+Z0mEByUu88h9iDYtR+lYhbOtfX98q9vVqqno5lwl0VjhnTp56RdsPGTykR4tGXQFth1u/0JYA2SpuVauq3K82vNcZLPo2ygIf1p3u9mBKcY0QBDUEFI2jbzJGZoE7BXQh3DZwywkyBdiKex5x644tgwD8CXsenjtX2YdsDbe1mcwKu4rN/rscQduuWPGMGqTg09mzZslLL78UswEDbYc2RFvi99GXH3/8cVV7xYb3un+jbyNpct962VX4mBdCCDEAM1dCCDEAxZUQQgxAcSWEEANQXAkhxAAUV0IIMQDFlRBCDEBxJYQQA3S4zzU+Pt55RwghpLswcyWEEANQXAkhxAAUV0IIMQDFlRBCDEBxJYQQA1BcCSHEABRXQggxAMWVEEIM0Kv/EcHECRNl0aJF0r//3zpHRCqrKmXevPnOXnjwv+TPmDFD4uLinCNtdOXveEVWZpaUlBRJsvMcKNtsLiwokNzcXPX+woW/ypNPPilbt/keBWIDtvjvtbVrJTExQYqKSqRqv+8xOKtWrZQxWWPUe7fv3D51Y4t/A/vkhg0bZOmyZeq910S7vXtt5gphLCwskCPvHZbssWPVlp8/T0aOGCGbN21UjuyMZ8vK5NbbblPfRRA0NNSrv4F924UVLFz4qHpaKewtKiqWG75+o+p8NoD2yckZJ6tXr1b2oZ3mz8+PqF1ihQ3+g5+GDRvm7PmADbAFNgX6DkKFY+6ttrZWfcZrYYV9sFP3SbQ9YgDXaAPRbu9eKa5oxNzcKVJdU91OBDHqY/QHEybcpV57K8gQkpKulF27dql9dCwE9ejRo9W+16Slp8m5c2fVAAY2bdysnraamXmT2vcaW/x35513yunTp509H0NThyrfabE8WHNQ+S45OVntu4Fw4TrgX69B28JObQvaHteBWPAaE+3dK8U1sBHdQGBPnDzpdxqCb+eO7cq5Gky5MBXrDHwH33WPvBjpIs2MTQIf4Gmq+/cfcI74OiECyH2tXgDfYAZx6NAh54gvmM+f/9iKjgZs8B9iCeWAY8ePO0d8wI7Bg4f44w4+g++02LqBOOP7wc7FmmB2IgYQC72xv/RKccUIDkc1NAR/HvqZujMqaL1uUEJCgQ79ne98WzZs2CgXP/vMOeoDGd+rr76i1gMq9u2TQQMHyX333++cbcOmrLUvwrsFCLGQmTMfVBmnLpu4QUaLsteCBT9U9UFkf7vf3N0hw0KmaEvW2hfpleKKjDVUDQqgZoXCtV557UvgukNl9DaAWYXNxMJ/KEthZrXm+RecI21gtnXzzd+Ud975gz9+sYiF2iWmthp8LnVoqpra2o7NfbEn7d0rxRV1E5QF3MGmCVbv640EG2CQycAvXgcyfh9Bi0FOg6wLU1hbhN8r/+n4xO1ApaWr1LQft1Zhf8WKp2Xy5MnOJ8OjY99dQ/SaYOU4rH00ftTo7HmHifbuleIKZ6BWNXHixHa3UqBRcR8bOra+t+7UqQ8kLi7eH4yoU2WkZ6j3nYEGgfPRCAACgVtLbADTSSweYHoJYBtuLbFlUMGqLOzRizKTp0xSvrRFDLzyH2J30uQp/tuosOnbAFEGKC4pVguyyF61SCHGscDl9p0tA6mbbdu2q9dZs2eqV7Q97LYhuzbR3vxHBK34ali+G68RxGfOnJUBAwa0WyTAZxDQ7hu5AQJE/0MD3Ki9v/Xcdddd2+FzXqAHE31TtE03bINAv9vgMze2+C9Y7Ln/EUFLS4u8+OKL7eqzuNsFwmBTewN3nwxmt5dEu717tbgSQohX8G4BQggxAMWVEEIMQHElhBADUFwJIcQAFFdCCDEAxZUQQgxAcSWEEAN0uM+VEEJIz2HmSgghBqC4EkKIASiuhBBiAIorIYQYgOJKCCEGoLgSQogBKK6EEGIAiishhBjAWnHNz8+XqspKqamu9m/FxUXO2c7BZ93fdW9d+Ttg3bp1snPHDsnOznaOhKas7Fn1eRuAvbBbXzdsswl3G+3ds1cmT4rs+VCxwnb/hcJmu9HGaGttW1f7okmi7bfPDRp0ZbHz3hrg8Ad+8IBs2LhB7r//+/LLX/5STn9wWmbOnCWTJk+S1157zflkaHbv/r36HrabbvqGXLx4Se644w61j3ORApFPT/M9I+svf/mLVLYKfjimTJki/fsnRGSjaX7+85+r5yjhuuG/e+/9rlw9fFiXrt8U8Ou0qdNlzQtrJC8vT8Z+M1smTJggR48elQ8//ND5lLfY7L9w2Go3xGvJkn+RY8ePyqRWkb3iiitUDMR/Ib7TfhULou036zJXjGzjx90l619f3yqyJc5RkU2bN8njjz8uA5OSVMeMFRkZ6VJ7olZtOTk5zlH7gR/hq/LycrUP/x0+ckjS0tLVvtfAr2fPnZXS0lK1v+GNjerpm1lZbU8G9RLb/RcKm+1G26KN0dYAbY8YQCx4jQm/WSeuWWMypbm5SbZs2eocaQMX/NH58/7GCJyC67Q+kqkGBPr3u3crp2qC/b2rUodJdXWN2uB89+dB4NT2vwz4onPGW+BH9fTPqrYH/oW6hlgDv44aOUoOHqxxjnRsW6+x2X/hsNlutC3aGG2tQQwgFhATXmLCb9aJa2pqqnza1CQVFRXOkfY0NjbIoEFtzxY3ic6i4HBscD4aQQNhRZZdUFAo6RkZ8tLLL8lXvvJl5ywhpC/DuwXCgDLAh3WnldBjQ2nAPU3Ae0wd9EiMac6Bd+147j4hxFusE9e6ujoZkJgYcpqArBXZq2kwFRgyeIiMzR7rn/bj/fCrr1YlBdgHO2Hv5URTU7PUN9Q7e/Zhuz9t918obLY73EzVa3riN+vEtapyf8iFDQgeaiCohZgG03/Ufh+aO1dN+fV26oMPVO0IwYCgQBnDTaxKFp1RX9+g/JiSnOIc8dW8Ll666HkgB/OdblvYbQM2+y8cNtsdLHHC7C8WyVJnmPCbdeKKKfabu9+U2bNmtbsrAJ1vyZIlcvTYUf8KMxoL2aUuOM+ZkycpKW3OCcepk6ckLq5VxJ0aKn7rpm/cpN4DNDrKAIGOdRfgERQ33jDa//v4G8hsbQA+wuLB7LzZah82wlb3IpKXYFUW9ug2zr1nSocFBS+x3X+hsNluvUiNfgrQ9ui/sUiWOsOE36x9EgEcD4GNi4tzjkiH27MAVve/fM016n1NTY0MHTpU9uzd0+5zuAsAGeX06dOdIz6wIDVt6jT1vr6+Xs6cOSOJAwaojo/7bLFApYVcA6dD5Hfs3K5+A38b5QLg/huBv+UFGACWLV3qH3CC+c9LAv1fUFhoVVZou/9CYbPduv8kJPSXlpYWeX7Nmg59zCui7TdrxZUQQi5neLcAIYQYgOJKCCEGoLgSQogBKK6EEGIAiishhBiA4koIIQaguBJCiAE63OcaHx/vvCOEENJdmLkSQogBKK6EEGIAiishhBiA4koIIQaguBJCiAEoroQQYgCKKyGEGIDiSgghBrhsxHXVqpVSsW+ff9v95m6ZOGGiczY8WZlZsnnTxnbf1xuO43xnFBYURPxZWwi8bvjQJuBTbVtX2rMrvLZ2rf839rz9tjw8d65zRtTv4Xf1eXzWjZf+C4x3+EoTaFe4uMQ12RS3gT53X5fXRLu9LwtxRYDc8PUbpaioWLLHjlVbeflOKSkpjqhxqvZXyaTJU9T38Df+/OdPZPXq1Wofx3G+N7Jw4aPq6ZX6uuFDW4IZIpeTM87fDkfeOyzz5+dHVQTQkf/yl7+ov4+tuqZacnOn+H8jJ+e/yquvvqLO5efPk8TEhHYdyiv/wb74fvHKJvz2hg0blK/04DNhwl3yzjt/8F8XbIStgcDHw4YNc/a8B9eFNkZbw260Pa7LPeB5SbTb23pxxcUNHjxEnnzySdm6zfeAM7B02TIVdDff/M2odsjeAjpiUtKVsmvXLrUP3yGoR48erfa9Ji09Tc6dOyvPlpWp/U0bN6unb2Zmtj0ksqfgmvH0Xs3BmoPqN5KTfU/o/adHH/X/PgZYCNbIESNUPHnpP9gy56GH/IP+/v0HpKXlogwf7nv4JWIfmwY2wlYtvpo777xTTp8+7ex5D9oW/kdbA/geMYBY8BoT7W29uOLicJFuYdUg6HSHhHN27tjebhSEMEc6JUJ27M5agv29UISbwnkFfIKnqcJHGohLsE4Ya9AeELFDhw45R3zBfP78x0Y7GsTm2PHjQWMJDE0dqjIXiJpN/ps8ZZLyjR4IAsFgAVsbGtoeUY0YRCaO67UFtC2uw+1/xIAe0LzERHtbLa5wOALkTN0Z50h7EExwiM5EvAA2uqdwlVWVzKYtAiKjBz105Hnz5jtn2oMOhGmgW/C9BIM6asSwG9x3//3qNRDEGeLtxMmT/kwX1/Kd73y7dWa3US5+9pk6RmLPZbOgZSuBU7jAqSfxFkyfdW0Ss6BgMxmI0aJFi9QMyT3d9hJkqbfedpuyGwRb8MN1lJQUqWzbPWjMnPmgylhDZbokNlgtrhAsBA6ma8GAgEHI3NMhL3BnR3l5eRIXZ+9/2wh/eu2vcISapUSD5cufUq9YENKg7QoLC9TCVqis1o0X/oNdqE2iPKBBZrtixdOqTuzOalGiwmxvzfMvOEfsR5dibKQn7W195hquJhOsThJr0DkxLdNlAayAYvHBaxAQgRk0al7wl9eBHGzQRFaG+lYshUu33YIFP+yQ5dnsPwjrd797ryxd2n5hC30EfSU5OUVKS1epwT43N1ftQ4gjWT8wCQZOCL+7L2M20fhRo7PnHSba23pxRfCgI2L6424UdIyJEyequhIuHs6BI/SCCDorbvOIFDSwW8QxterfP0G9D4d7EQTg923IXCEWWDzAdQD4w6aaIlZlYY/u8MjKoj1Qqqy0ddPMmj1TEhIGqN9AO0NYkfkF6zxe+g8++clTviwb4BpwSxVKTiDUwhyuQ99yqDfcUdPQUB90AIk127ZtV69oB4DrxJ1A+rq8xER7XxY1V0x7ULDXozE2CCdGbh0wCCwIbUZ6hjqPGtr+IJ0mFHoapX8Dt7BcuNCsjmncGQE21O+OHH5PBYg+ljo01YrMFWAajEwBduGeYNwbbFNNEfagjAL7MLAVFZUEFbruggEXA7BuG3SWwFv6kNnp89jc/9DAK/+dOvVB66wsy28TruHFF19sJ45jssb4z+vNPZDYCNp25cpS1Q6wd8aMGaoc47Xoa6Ld3nzMCyGEGIB3CxBCiAEoroQQYgCKKyGEGIDiSgghBqC4EkKIASiuhBBiAIorIYQYoMN9roQQQnoOM1dCCDEAxZUQQgxAcSWEEANQXAkhxAAUV0IIMQDFlRBCDEBxJYQQA1BcCSHEAH1GXIuLi6SmurrdhmOdsW7dunbf2btnr0yeNNk5azfZ2dmyc8cOv+1lZc86Z+zA3SY2+tV2/4XCZrvRxmhrbVskfTBWRNtvnxs06Mpi532v5vbbb5eBSQPlhz/6kfz4xz+WK664Qu773n2SelWq7N79e+dTHbnvvvvk+PFjMqk1KH75y1/K2G9my733flfOnTsnx1qP28zPf/5z9VyqO+64Q05/cFrZffXwYWGvN1bk5+fLtKnTZc0La9SjXuDXCRMmyNGjR+XDDz90PuUtNvsvHLbaDfFasuRfWvvNUdWf0AcRA/FfiJfKykrnU94Rbb/12bJAaWmpHHj3gKSmpjpHIuNXv1otH3/8sQwfMdw5YifIEAYmJUl5ebna37R5kxw+ckjS0tLVvtdkZKTL2XNnVTuADW9sVE/fzMrq+JRfL7Ddf6Gw2W60LdoYbQ3Q9ogBxILXmPBbn665DhrU9hhdZFJVraNnZ9OVlOQU9RAzgAb5/e7d6rsafA9TC4zSXpI1JlONwlVVbQ/8q66uUQEEu70Evhk1cpQcPFjjHPEF80fnz1vR0YDN/guHzXajbdHGaGsNYgCx0Bv7S58VVwjikMFDlAPRsNOmTlWNnp6RIQUFha3T/nrnk+3JvWdKh0YghJBA+pS4pqSkyHNlZSoznT1rlrz08kv+aSnQJQKI7C9+8Qv1HozNHuvPaDHKFhQWSkVFhXOWEEI60qfEtb6+Xh6aO1dlp1ljxviFFUIJwYRwQkBxh4CbfRX71HewjRs//rIW1qamZqlvCJ6V20BdXZ3zzk5s918obLb706Yma/tUT/zWp2uubtC4EE4IKAgU2MuN+voGtXiAGrEGNa+Lly56Hsj4fXQo92Ii6lqob8FuG7DZf+Gw2W4MnAMSE9vVV7Fg1NjofZub8BvFtRV07F+/8IKzJxE3NkY01F/RCAB/Z/y4u9R7r0FWjsWD2Xmz1T5su/GG0e0WkbwEq7KwRy8G2lbLtt1/obDZ7i1btqrXOXPy1Kt73cNrTPiN4toKRBJZlLuu+sQTTzhnQ4MRbf3rr8tN37hJfW/JkiWt4uD9/XoaXAMyBdi2bNlS2bFzuxQXlzhnvQXBDHsenjvX73Pbatk2+y8cttqNtl2x4hklWrAt2LqHl0Tbb3zMCyGEGICZKyGEGIDiSgghBqC4EkKIASiuhBBiAIorIYQYgOJKCCEGoLgSQogBOtznGh8f77wjhBDSXZi5EkKIASiuhBBiAIorIYQYgOJKCCEGoLgSQogBKK6EEGIAiishhBiA4koIIQboM+KalZklmzdtlIp9+9S25+231f+CHwmB3+3q970i0O5Vq1Y6Z+ygsKDAb9vuN3fLxAkTnTOx5bW1a/124L3Gdv+Fwma70cZoa20bYsAWou23zw0adGWx817x+c9/3nnXe0CD/uu//qu89dZb8vczZshzv/qVxLVeZ0JCorzzh3ecT4UGj4C5447b5Xe/+53/+88//7zs37/f+YSd/OxnP5VLl1rkrgkT5PTpD2XatOkybNhV8tb/+l/OJ7wDA9M990yVF198Uf6ff/gHGZOdJePHj5NjR49L3ZnYPAEWnem55571+wjt+pvf/MY5a7f/wmGr3fD3okUL5fgfjyubrrjiChUD8fH9rOhL0fZbn8hchw+/WlpaLrY24AHniMizZWXy01Zn9lYwoCQlXSm7du1S+1u3bZUj7x2W0aNHq32vSUtPk3Pnzqp2AJs2blZP38zMvEntx4IJE3wPk1y+/Cn16sZ2/4XCZrvRtmhjtDVA2yMGEAteY8JvfUJcT536QOLi4kN2XExNMB147LHH/FMC7GOkjQT39NaWcgGuFU9TdQ8oB2sOqgBCIHkJ/DpyxAg5dOiQc8QXzOfPfxzTjoaO8847f5Cq/R2fOGuz/8Jhs91oW7Qx2lqDGEAsRNrXTGHCb31CXNGYr776ikyc6Kv3BHNWcnKKfO2rX5XssWPV1tTULAsXPuqcDQ2ENSdnnBQVFavvbd26VXJzp3geLCQ8aB9kUVdeeaUaEG0aGEnvoM8saGEKcuttt0l5+U4pKSlut3ABGhrq200PMT0IHLVyc3M7ZLbIfjB90KPxtm3bVd0mVJZM7KFfvzi57rprZcGCH/oHxu9//++szkzJ5UOfEVfN0mXLJD9/niQmJoRdDUQpAdMENxs2bPBntpMmT1HH8HfGZI3xi25p6Sq56qqrWjPhZHXeNpCRNzQ0OHv2cabujPMuNrjLAhgYm5s/DTsw2u6/UNhsN2wLVpqxgZ74rc+JK0BDnjh5UgYNHOQc6QgWwTBtDAf+DpzvFl29QcS9BAEB+90ij5oXBgyvA1n7bWjqUOdI24JCrARA2xAKm/0XDpvtxsCJZMRdMsPMr/GjRmfPO0z4rU+IK+poP3mqbcqPxkUR3d2oqLnq1WOcR9302PHj7YrvwUBBHjVX26aSKINg8WDmzAfVPuy74es3tltE8hKUXWCPrnFOnjJJBbJ7QcE0gW2H9k9IGKBssN1/obDZbswMwKzZM9Ur2n7w4CFq4chrTPjtb/rCkwjgqEWLFkn//n/rHBGprKqUefPmq/dYlLr55m+2du4WNaUHtbW1ct/996v3ENuSkiI1hQyWkaK8gNKABvXboqISzzMFbTcGDoAM2+uM2g38jjo28MpnbhsuXPirPPnkk/4B1Xb/hcJmu919saWlRd3nDGGzgWj7rU+Ia2docbVBEAkhvYM+WXMlhBDTUFwJIcQALAsQQogBmLkSQogBKK6EEGIAiishhBiA4koIIQbosKBFCCGk5zBzJYQQA1BcCSHEABRXQggxAMWVEEIMQHElhBADUFwJIcQAFFdCCDEAxZUQQgzQp8W1uLhIaqqr/du6deucMx3BubKyZ529y4Ps7GzZuWOH//pss9/t/7179srkSZOdM3Zgu/9CYbPdaGO0tbYNMWAL0fbb5wYNurLYed+ngOPSRqfJD3/0I/nxj38sv/zlL+XWW26Rj86fl29kfEOee65M+vfvL5WVlerz9913n1y4cEE2btyk9i8Hfv7zn6vnUt1xxx1y+oPTcu+935Wrhw+T3bt/73zCO/Lz82Xa1Omy5oU1kpeXJ2O/mS0TJkyQo0ePyocffuh8ylts9l84bLUb4rVkyb/IseNHZVKryF5xxRUqBuK/EO/vZ14Sbb/12cx10KBkqT1RKxUVFc4RkUcWLGi3fzmDDGFgUpKUl5er/U2bN8nhI4ckLS1d7XtNRka6nD13VkpLS9X+hjc2qqdvZmW1PRnUS2z3XyhsthttizZGWwO0PWIAseA1JvzWZ8W1sbFBRo0cpUZTN8ioMFX50pe+pJ5OiWlC4GcCQRaspxK2THWyxmSqUbiqqu2ZYNXVNSqAEEheAn/C9wcP1jhHfMGMWYMNHQ3Y7L9w2Gw32hZtjLbWIAaC9cNYY8JvfVZc5859WD5tapLnysra1VYwmhYXl8gnn3yinko5bvz4sNksguIL8V+Qh1qFOD0jQ/ZV7JNbb7nV82AhhHhLn17Qmj59uhJFjJxVlZUqa+0qEN4ZDz7oF2CMdpj6pDiP5yWE9E36tLgCiCKyU0xVHvjBA92aArhXvVFKiIvr55yxj6amZqlvqHf27KOurs55Zye2+y8UNtuNGaStax098VufF1dNVeV+aWm5JMNHDHeORAaEFWUAXRZAKQF/x2vq6xs6ZNCoeV28dNHzQMbvo0OlpqY6R9oWFGC3Ddjsv3DYbDcGzgGJie1KZlgwwvqH15jwW58V11+/8EK7LBUFbWScp06eco5EBgTCPfKiQWzIXFE7xuLB7LzZah/XeuMNo9stInkJVmVhjy7F5N4zpcOCgpfY7r9Q2Gz3li1b1eucOXnqFW0/ZPAQVUrzGhN+67NPIsAi1tjssc6eSHPzBXn88cf9K5n6fH19vRQUFsrixYvly9dco85psHiF20qWLFkiCQn91bHTpz+UxMQEWb78qXarol6ADGHZ0qWSkuIbjde/vl4t1tkCsv5pU6ep99rPNmWFtvsvFDbbDdHS/aWlpUWeX7NGCZsNRNtvfVZcCSHEJKy5EkKIASiuhBBiAIorIYQYgOJKCCEGoLgSQogBKK6EEGIAiishhBigw32u8fHxzjtCCCHdhZkrIYQYgOJKCCEGoLgSQogBKK6EEGIAiishhBiA4koIIQaguBJCiAEoroQQYgCKq8Nra9dKxb59Hbbdb+6WiRMmOp+6vMjKzJLNmzb6r2XVqpXOGTsoLCiw2s82+A8+gQ2BvgnlO/dx92aLf2EDbNF2wV5biHZ7U1wd7rv/fskeO1by8+dJQ0O9bNiwQe3ffsftsnWb79k/lxsLFz6qnl6J6ygqKpYbvn6jNcGMp+Tm5IyT1atXK/uOvHdY5s/PVwFuC177D527pKRYEhIGOEd8hPPd0mXL1DH3Vltbqz7jdRzDPtgJW2AX7Md14HpsINrtTXHtpSBDSEq6Unbt2qX20bEQ1KNHj1b7XpOWnibnzp1VT8sFmzZuVk/fzMy8Se17jdf+g7COHDFC1q59TVpaLjpHfXTFdxAuXAc+4zWwD3ZqW2A/rgPX4zUm2pviGgEIdD1VcE9l9DTiJ0895Z/q7Hn7bStGYgQynqa6f/8B54jIwZqDKoC8nh7CbxCOQ4cOOUd8wXz+/MdWdDTgtf/mzZsvkyZPkebmJueIj6767s4775Rjx4+rz3gN7IOdbltwHbgeXJeXmGhvimsnoNHj+8WrcgGmC5VVlXLzzd9sFwyZre+ffPJJdf706dOSmzvF82AhxKastS9Cce2Eqv1VMuehh9QrwGiGqU1ycrLaB+XlO/2jMaYVgecJ8QJkirZkrX0RimsEoAygSwJ5eXkSF3f5/reMKNg3NDQ4e/Zxpu6M885ObPaf23eYOaUOTVXJgO3Apzp5sY2etDfFtRMgrCgD6LIAVjgDFxhsBAERmEEjk0FdyetAxu8jaIemDnWOtC0o2CJctvovUt/pxS13DdFrIP6JiQntSmZYMGr8qNHZ8w4T7U1x7QQEsXtkhcMvh8wVK7FYPJg580G1jw6IW0vcCyFegvIJ7NGLf5OnTOqwoOAlNvsvEt/ZMpC62bZtu3qdNXumeoX9gwcPsSK7NtHeFNdOwGIAAkCXBTDVuhwyV7B8+VMqU4DduF8StWHcB2kDCGbYgzIL7MOKcVFRiVViYKv/IvHdoIGDrBlINbBv5cpSJVqwe8aMGfLqq6+o67GBaLc3H/NCCCEGYOZKCCEGoLgSQogBKK6EEGIAiishhBiA4koIIQaguBJCiAEoroQQYoAO97kSQgjpOcxcCSHEABRXQggxAMWVEEIMQHElhBADUFwJIcQAFFdCCDEAxZUQQgxAcSWEEAP0enHNz8+XqspKqamu7rCVlT2rzu/ds1e9FhcXqfeTJ012vu1j3bp1anODz/9+9+4On7WJ7Oxs2bljR7vrtQn4W9sWzO9eY7v/QmGz3WhjtLW2DTFgAvTPzZs2K1+4gS/0b8NH7vPueMQG3cDf6S69XlxLS0sla8wYSc/IkPWvr5f6+np5aO5ctT937sPq/C233qJeqyr3S0vLJRk+YrjzbV8wDBk8RG3uzp+SkqyeUVTfUO8csY/FixfLp01N6loLCgrlxhtGGwvmroKgHT/uLvWID9h3+MghWbDgkQ6dwUts9l84bLUbbYs2RlvDNrQ9YqAnAhYMJEJ4Ple/fnHOER/wAXwBn+D34SP4SpOamip/ev99dQ4bdAO60F1YFnABoYRgZmSkO0ek1cGZzjtpJ7ppaelSe6JWKioqnCN2gYFgYFKSlJeXq/1NmzepoIbdNgAfnz131h+8G97YqJ6+mZXV9mRQL7Hdf6Gw2W60LdoYbQ3Q9ogBd3/rKXqGiUQqEPgAvoBPAHwEX7mTpsbG6D19uM+LKxyL6T1GTwglBHPQoLbH62I0Q4O4g0AHcHV1jdp3TzWw2ZAlYFBQT/+santoHewNDCYvQAYzauQoOXjQ5z+AgP/o/PmodrSeYLP/wmGz3WhbtLEWN4AYQCxEa8Yyffp0tQUS2GcBfARf6QTK3e+jATPXANyBiAa/KnWYOoYg0M7XGeypk6fUZ74Q/wV/qWFfxT659ZZboxYshJDYMTZ7bNSSJIprAO7RDNMYPGoXIlpf3+AXXfcIjGx3xoMP+ssDEGJMfVKSU9Q+IeTyABmvrreiHoy+3hOBpbgGAJFEoRvlACxaaRF1iy4yWPeUFg2gRzsU0uPi+jln7KOpqdnqRbi6ujrnnZ3Y7r9Q2Gw3+ptXaxeXLrWoxCkQ1IMPvHugR7VqimsQdB1oTFa2X0S16F537fUqg9UNAmFFGUCXBTDi4Y4Dr4F9gRk0Mu6Lly56Fsga9wCm0TWxYIHuBTb7Lxw2242Bc0BiYruSGcQrmotIodCL1UiYNO6ZaSh6YhvFNQi4JSshIVEGD05p19khtMOHD1dZgF4wgEC4R14Esg2ZK0ZeZN2z82arfYgXbkNxZ9xegpVa2KNvw8m9Z4oKfvdCjJfY7r9Q2Gz3li1b1eucOXnqFW2PWxzdi0ymQP/cs3ePuvULPgE5OTn+mSkE/5kVK9RxANvgt57YRnENAka55uYm+fjjj9t1dogu+LDutF9McVsJAkSXBbAAZkPmCp544gmVKcCuZcuWyo6d21sz7RLnrLdABGAPyiiwDzOFgsJCq7JCm/0XDlvtRtuuWPGMEi3YNnvWLHnp5ZdULMQC+AB3/sAn+H3gvrPg+uuvV8ejZRsf80IIIQZg5koIIQaguBJCiAEoroQQYgCKKyGEGIDiSgghBqC4EkKIASiuhBBiAIorIYQYgOJKCCEGoLgSQogBKK6EEGIAiishhBiA4koIIQaguBJCSNQR+b/g5EbjxtoI4AAAAABJRU5ErkJggg==;" vertex="1" parent="1">
                    <mxGeometry x="90" y="240" width="260" height="520" as="geometry"/>
                </mxCell>
                <mxCell id="3" value="" style="shape=image;html=1;verticalLabelPosition=bottom;verticalAlign=top;imageAspect=1;aspect=fixed;image=data:image/png,iVBORw0KGgoAAAANSUhEUgAAAXkAAAFOCAYAAABjfG0oAAAAAXNSR0IArs4c6QAAAARnQU1BAACxjwv8YQUAAAAJcEhZcwAADsMAAA7DAcdvqGQAAEfvSURBVHhe7b0LkFbFue/d5zthyHZwK8hFAVHMiZgol8htR02iHkRRJGrONiZ6FEFJFXgkO9HoEb4PqA3GW4x4hKqY4CWVRJNTGxMuosA2mBINN+WiQfREBJXLgGAi446wa59vfj3rWfQs3nfmnXlvaxb/X9Wqd1b3uvR6uvvfTz+9YP2nfmec9n+dEEKITPL/RL9CCCEyiEReCCEyTN5wzXHHHR/9JYQQor0iT14IITKMRF4IITKMRF4IITKMRF4IITKMRF4IITKMRF4IITKMRF4IITKMRF4IITKMRF6UnXE33uj+dfky99ySZ93Iiy6KUsvHk0884f7w4gr30I9/FKWkh0rbotyk9XmKKRfHcx7nc51iKfZ6tGPaM+26LUjkhRAiw0jkhRBt5rHHH3f/dcRF7pJRl7qly5ZFqe0bnoPn4bl4vvaORF6UBJtS2tbc1NSmr+HxbZ2KtoSFbsLytHT/1jxLMXzpS4P8tVtz/zt+cLtPm/8v/9udffbZPs2esRrhKcpF+SwsQpkoW1h+ygy57G555cbsxoadwn3bkuUsV72bzbgnddfa/mD1XWj5JPKiJHTufEL0VyMdOnRwV1/9j74BJ+ndu7fPD+nb99SSi9TZZw/21wXuN3r0pV6EWrp/a56lrRxzzDHusssui8vB/U1kKnH/cjH51ltd167dor3DIEZ33PED/9wh2KDcQt+rdy93wQUX+L9ffXWd++4/fd+ddNKJfj9k5MiRZRH1kNpOtb4dUqdbt77rbhg7tlX9AVuRd+jQIffLX/6qoJmGRF6UBBrrV792vt9mzpzlPvnkE99wacBJbIpvx9PxICluxUIn4vqLFy/2+8ccU+u6nnBCi/dvzbO0FTrpE0882SA433N79+7xaSY8lbh/ueGZeDae4d777ncDBpzlnyFMN7sPHz4snpWUg3POOdcPLrQHBB74NRtbHVC+bt26+vxy8YUvfMEPgtxv9sMP+7RC+0PHz3b0toKlS5cWHEqSyIuSYFNItqlTpxzhsYWE01U2PO5ysH//h/53z569XlSNlu7fmmdpK5Tn/fffb+jQr7qPP66PUhupxP3LxYsvvuifDSF76McPxiEFE6zt27f7Z4adO3f533KC7fqd/nn/95/+9Ib/BbxkszHlzDX7KDUMImedeab/O7RDof2h50kn+XIy6L/22vootWUk8qJoaKS9G6bE5jnjoYaimuRrX/ua/+U4jue8StLc/Vv7LKWm0PvbrIQQTo8e3aPU6mNeaegdE5449O+Nz9CnT5/Ya88VMik1COLKlS/7vwnZYC+2M874QjyrsNlSuaEeKQu//fsP8HUNhfYH0tkYuK699tootWUk8qJkECvEExk79gbfuZuDfI7jeM6rNC3dvzXPUg7y3d9mJXR0vHzi3GnCZiGhd8xM5eVI3MzD5xjzWFetWh17teXgtfWveUFPiqOVpZKzpbfffrthBveBr1NbI4JC+4PNlDim0LUMibwoGrw3Gi7QAImBN+cZWUMFPBOLQVaK5u7f2mcpNS3dn/xNmzZGe87/vXt3XbSXPiz2TLnvvfe+Js/C8+G9ErMvJx/t/8gtWvSsvx/iiNC/+ebmKNe55f/6r76cleKXv/yltwODzNQp/9O99dZbedtjkrD+C1201uf/hBAigDDKtdd+2wvvgw/+uN2//y9PXgghGrB3/C1ExgwpC//ASyIvhBAJCKcQVskCCtcIIUSGkScvhBAZRiIvhBAZRiIvhBAZRiIvhBAZJu/Cq/1rNSGEEO0XefJCCJFhJPJCCJFhJPJCCJFhJPJCCJFhJPJCCJFhJPJCCJFhJPJCCJFhJPJCCJFhJPJCCJFhJPIV4Lbvf89/jf2xeT+LUoQQojJI5CvAiSeW/6v0QgiRC/3fNWUG7/2UU06J9pz793//d/fUU0832PcEN2rUqCi1kSVLlrgHfvRgfA5fp5n98P/yeZNv/R/+i/Kvvfaau+32H/jZQXi+Hbt8+XK/b9fg+C5dusRlsHsIIY4O/nPXrp2nR3834ZhjaqO/RDF8/etj3PHHH/7K1n/8x3+4119/3Z122mnupJNOilIb6du3r/vMf/6M+92ChW7w2We74447znWqrXX/5b98zvXp08dt27bNTbrlf7gH7r/PfeUrX4nOaoRvUnLOnj173TvvvBPfl3uE9+/cubP7P//nz27Xrl1RihAiyyhcU2bGjb/Je9OASF98ySj3xJNPem/8v464yG/fv+12t3fvXveZz3zGe/jr169v8Lif817/l770Jb/hqf+qYQYwaNAgd/LJJ/vrcd3wfDz9Sy4e6fMM7skxePDAMV27dvV/CyGyj0S+SuCNsxjL9qMH7j9CeBkIPvjgg2jPuS1btvhQDMch1AwAr7/+hs9jUKivr/d/J9m3b5//3bv3Q39OTU2N692rl08TQmQfiXwVGDFihOvXr5/3vvHCf3jPvd5TDxl7ww2uVyDG/fv392mcw7F4/WeddabPw7uvrVV4TQhxJBL5CsLi5/PPLXFf+cp5fh+vHC/+f955h/fODQaBb3zjKi/khFkIufD3V7/6Fe+1v/fee/44wjjhTADxf+75pT5PCCFAIl8BEN7QU9/6zlYffjFe+P3vvYcOJ5xwgrv5pvFe9Elb/q8v+Fg85zNIEOYhnm8xdoNj/9//b1r8do0QQoBeoRRCiAwjT14IITKMRF4IITKMRF4IITKMRF4IITKMRF4IITKMRF4IITKMRF4IITJM3vfkhRBCtH/kyQshRIaRyAshRIaRyAshRIaRyAshRIaRyAshRIaRyAshRIaRyAshRIaRyAshRIZpNyI/ceJEt3bNGrdh/Xq/8TdpWWL69Glu2dKlbtiwYVFKbsjnOI5vr4y+bLR7eeXLcX2m7VkeffQncdkKqZNKkwb7WTucP39+lNIU0vOVi767eNHiVNmVspo9sS02riTN1WlS/1pT3+1C5Olw42680T32+ONu4KBBfuPvM/r1i44Q7Qk69uTJt7rX39jk6/Injz7qRl50cWoGbTrQWWf2d1OmTPXl+/jAAXfnnXdGudUnLfa79NJRrnv37tHeYUyQPnfaaVFKUxD/70yY4GpqOkQp1YcyY0NsiU2xLTau1CDE/Wl3S5c97+/PNn36DJ+H+F937XVu0eJFbarv1Iu8dTgeeO7cuVGq83/fOnlytCfaE0OGDGno4DVuwe8W+n3qctfuXW7QoIF+v9oMGDDQd3I6FfDd3BO6dKm4Z5ePNNgP8Rs6ZJh7//0PopRGEB4E6Te/+d+urq4uSj2Mef3P/PYZ/5sWsB02NI3BttgYW1cCPt7/6muvxsIe0ueUPu7QoYMNA+c6v7927VpXX3+gYYAt7BOtqRf5ZIfLBQOBTWPY8PwN/qZhsZFn07BwOp7r+DDfGibQuJmiWl44raMc5P38ySdznmvXNuxanJeLsAxs+Y6D8NjkVNOenS0NoQc61If79jWp040bN7i+p/atetmwG4K+fv2GKKWxUx08eNANGTo4SqkuabDfTTeNd58e/NR9sOP9KKURRPKcc89xK15cEaU05aqrrvJbmsBm2A4bGtgWG1di4KTNHdupUzxoJ7H2N+brl/t9G+RN9Fsi1SKP8Xn4HTt2RCm5oYJsao2HgOcfihzTRiqQfEbrWbNm+vTmjgfyb26YVlIGRBQw8ObNm+M8RlQzPjB9/dunf/P5TKv6nHxys+KcD579sx0/6+/BtVatXuXOPefcnJ2YsmEDO5ZBcdz4cT6Pe1N+y1u2bLlPF6Kt4K33O72fe2zeY1GKKAY89YMHD7mrr/7HnM7Y6tWr3ZSpU30fJ4+Z0v33P9Cs4xvSbhZem+OGsWPjB2Z0Y2qD4Yw/v/NOg9g1ToMQ+/r6T+JRM9/xEyZ8x/+NgVe+vDL2ksIwEXlb393qunY9PG1iivqzn83zf3Ps9vfecz179vT7rYFrX3/DDf4X8CwZvbt3axoDpUyUjTLasTwbwm4DV21tp/i8++6/Lz5OiNZCe7vyiivc71f8vmCRES3To8dh55AtXAeiH99/330NDulvfd7dd9/t7rrrroKdx1SLPGLEw7YkkngWtvKMl15bWxvlHEld3R63f/9+V7fnyHhhPjiHkdYIwx/Dhw2PUksPlWj3YaGqQ4eaKOcwiDcifuUVV8bHYoPOnTv7gYvBjcUc0tL+RhJ1ndYBiPqnHaSZStgP4eE+uWLHWaSlKEKpqK+vbxKuCdeBiBQQOrL1AgZX+jSh7EJIvSffUqwR0frm1Vf7RscoR9gGg5USFjjsTQAEfu/ePfGISxilHCDwhGcszELohxlHEgYrBi17K8C2IUOHxo3CbMMbSUz1qi30dBxmGmGd0mCxa7XBnsQ/w0UtQnSdOtW67du2RynVpVr2Q3BO7HGiD2eaQ4GTw341XjksFbmcSZ4Fka3EwE67os2Vi9SL/LPPLvG/D/34oSaNCKF6ePZs3xkxkHnmLI4158kXAnF0E0LuyetKhEOAzmWju4VKCoXz6CT2HCxe5XoFDWhwoWfGAlAuT558Fr+YQucaCLGRPQuNKddAUWmsTnl+oHzYJVzsrBbYk7qmzq2eePMhudBZTaplP56fRdXQmcDJIbxJensO3+A5szZnfQXvGV1h0bPcYDf6uq2jQdjmqFfqN6lJ4UJxc6Re5Ol0F40c6RcTCTmYB4FHunTpsrjB/7TBkyUd77dYT3737jovmlyPe3JvvGETAAuNzJ0zx0/jC4Vr2MIv57Owmus1M2DqRsVyHFuvnr3zCjTrBzQSswGbvcWzb/8+H+ohjfsSSzUPv1pgx9mzH/adinLxbyB+8ctfVL1cBvUUtjdI0xshabdfewTbEQKxvoLzxmIntq4E1r64d7LNUTbql3omL9SkQtDn/xLwpgoLqWl7zUsIIdpCJt6uEUIIkRuJvBBCZBiFa4QQIsPIkxdCiAwjkRdCiAwjkRdCiAwjkRdCiAyTd+G1Y8eO0V9CCCHaK/LkhRAiw0jkhRAiw0jkhRAiw0jkhRAiw0jkhRAiw0jkhRAiw0jkhRAiw0jkhRAiwxx1Is+XX1a+9JJbvWqV3/ibtEKYOmWKW7xooRsyeEiUItrKqEtGuRW/XxHXA7ZNE3PmPBKXrRx1nnz+5D2wh+WxJe1TTfsl+1C+e//66afz5nGNZ+bPT1VfCm2ObbFxWiimvo8qkafjXn/99e7nP/+5GzZ8uN/4+/TTT4+OSA9U6rKljZ8jyxp07Ftumeje+NPrvg7mzZvnRoy4KDXPSgc684tnuWnTpvvyHThQ726//bYotzQMHny2W758mb/+xImTfNqN48b6X+xz6qmn+vRc9qmm/WiX3/rWt92SJUvy3pu/GQT69s39/WPEf/z48fHH8dMAZeY5eB6eC9ti4zQMQsXW91Ej8tZxZ86c5X7y6KNRqvN/f/+20nZg0TwIXE1NjVu0cLHfpw52797lBgwc4PerTf/+/X2HWvJc4/eDX3jhBdelS+eSenYzZ83yG6xdt9a9u22b63pC13j/pptv9r+QtE817denz8nu0KFP3bp1r/p9fuvrP3bdunXz+wgPg8C//Mt8tyf6uH4IAg8LFizwv2kB22FD0wZsi42xdbUptr6PGpFPdtx8hNN0NvbzkZxChccy+jIFt7xkWIhjafDh/awDcNzUqVPccccd7z2ecCofHh9OKRnEOI4pMHnsJ8uQlikojXPfvv1N6mLTpk3u1FNOqbrnhH0Q9I0bNkYpjULGl/vL1eG55+mf/7wfTHKBTTp1qnU7d+z0+9W0n9li9OWX+X0TIBN9BOj8C853f/jDH/x+km9ec43f0gQ2w3bY0MC22LgSA2dLFFvfR4XIJztJPhDQcJrOL/u54l90zDvuuCOecnMsHRWB5n4zZkzz03zy2Jje4uGEImvTWfKZmlNGykBHYcbxl7985Kdml42+3Ht15FGxNo1n0Bo79gZ/DejWrXtDZ1vn8/AS6YBvvrklvj4el3VOUX0Y1Bl8aUcPPvhQ7EUmueSSi11t7bGxkFYT2uG0aTN8O6TstGnK3pLzJKrHUbfwmg8bzRFta7D8IqTMApIgoIjmc8897/c59q233/ajrnk3TzzxpM8DjuP40BvcunWrmzTpFv83neeVV/6Yd3S28nGMTeOZvjEw2MDB9NjKA4iGhaI4JwwJiOqDR8sAfO+993qhZxBPgoMxatQo99RTv0qFkNLWfvjDWW7BgoVNyp7LERLp4KgQeQQOr/qknidFKUdCTBFh3rNnT5TSCN4/QpoUXq6F5zx37pw4HDJ0yFAvolyLKW14rULKwPEHDx6K9prCNfHmxowZE99vxozp7vjjO/s4aT7MW7TypRnsYwNY2qBekm2jVCDeiDgzwXCmR919+cv/4CZP/m5eLz+kEvZjJkjowMpD2XGMcjlCWaCl2X81KbS+jxpPvqUYVqPAHvRimiSXMal8PHG8mXDDO+NaDBi5rtVco2kcaHK/ccA19+/fF6/+23bueeflFQBEYu+He+Nj16xdE+VUl1wDJyJBWatNrnbA7Ivybt/+XpRSfqzuLFQXkmb7tUewb9IBY7BlbaZcA3trKLa+jxqRtzDGAw880MRbIob+o4Y0KppwBq8mWT6/7IcLMgbx0R49Tsw5TbXFqTBeznEcH8ZVe/fuHS/G2r3CcEwIaTt27mjw5C/PO1CFcAwNwwYV9hnk0oDVhb0yiA2wTbjYWS2wM3UQtoMLL7zwiIWvYvlpw8Bs16duqFe7B/ZAYOxtiiTVtB/34F7Jdpurj7QnWPRm/c2eixkLfTgN6yDF1vdR92Uo4p5h2OKTT/7NxxWtAyfzedXLXnVDqJk+s/CEGGBs3rvv0KHR+z506JB/7x7Pmo7L4ishHch1n54n9fSeux2Dp20xerCyEGu3e+Lhhe8fM5tg9pAsG5BGeAcoW11dnW+4aXi7AXEglnvMMX/XxG5pIWwHZuNSkmxn4T2S7coI20E17ZcsX7LdgrV/BkzrPyG52mu1CftLaOs0UEx9H3Uinxbo5MTv0yC4QojsordrhBAiw0jkhRAiwyhcI4QQGUaevBBCZBiJvBBCZBiJvBBCZBiJvBBCZJi8C69CCCHaP/LkhRAiw0jkhRAiw0jkhRAiw0jkhRAiw0jkhRAiw0jkhRAiw0jkhRAiw0jkhRAiw0jkS8D8+fPdhvXrm2zLli51w4YNi45wbvRlo93LK19206dPi1Kyw6OP/sRv+eCZ165Z4yZOnBilNJ4T2gvbYKNSwT3D6yftbvWRLz+s02RdpoGWyl9OqEfqk/sm6zUkV72H51a63C1BWaxcpW6PIS31F9pess2F/aU5m+dCIl8iVq1e5QYOGhRvHx844ObOmRNXxqLFi9w5557T0JBm+P2WoIG9uGJFqyqz0pjQDB82PEo5EhrqueecG+0dpmvXbk1shm2wUSngnqf1Pc3dPGGCvzafSRt50cWxLcmfPPlW9/obm3Lm06GO7dQpPp+6vPPOO31eGmip/OWEe1x37XXusccf9/fm95tXX32EIOaqd47hXOq50uVuCcpAWSgTZcO22JjnKBWF9BfK0efkk6O9RjivY01HXy427IcdkzbPh0S+TFx11VXu1ddedSNGjIhSsgUN7K677nJLlz3v/vzOO1HqkVx6aePHquvr6/1vyI4dO6K/Ssvq1avd9Tfc4H9h7ty5btfuXW7QoIF+f8iQIa6mpsYt+N1Cv5/MZwDa+u7W+PyNGzd40S9lhy+GlspfTrgH9+KewO+H+/a5MV+/3O8bueq9zyl93KFDBxs80XV+f+3atQ35B1z37t38fjVJPhe2xcbYuhQU2l/Qi+3vvRftNYKo3zC28SPe8OyzS7zdhgwdHKU0j0S+jKxfv8Gd0KWLr2AEgimYTU/xFpmWhdMw9oHRnOOOP/54/9HkcOoWHh9OKTme4xYvWuzz2Ld75jq+WAqZmXCvC86/wK18eWWU0gjlQjQrhd3PBhU6NMIUzhwQ8r6n9vXH8vdZZ/aPbTVgwMAmol9tWip/pdm7d48fGI189Y6o8yF5GxBssDLRrxbYDNthQwPbYuNSDZyF9Bf6LO30rbfeilJy071bd2+3uro9UUrzSOTLyPZt2/0vHkwuPnfaaf6XKRihASoYEceboDF89NFHfvp40ciRXmDIozFaGIEp5bjx4/w1oHv37m7N2tU+j/PpRJs3b46vz+if9LjKCWXb8taWvJ34yiuu9INPa2OMrQWvsra2U8Figu3wuGbNmunLh4hNmPCdKPfoBsflxB4nxvWFoDMghuSrd9rwlKlTfRvGroQc7r//gSaD1dGKDYzP/Pa37m9/+7coNTf0YQZLBs1CkMhXEaZtJh50ADyffN6YeRscYx4lU0oGBvM46+rq/FTOYLC4dfJk/zfn4I2GHlc5Ma/kZz+bF6UchrIwcDH4sNHJx914Y1mEnnJgn1/88hcFiwmDKd67lQ+SC2FHK7QpBkBmmAg1IYjt2xudGWiu3qmH+++7zwsZdr377rv9+ZxztGMDo4WL8kHbZFCdPfvhWAdaQiJfRsyDN4++JZh+HTx4KNprClM0vFHzftnwNDt37px3pgDhWyLNLfiUEsSaRSw6cyENEc+ZOGSppsYGz87i38RJk1rsPMACK3bud3o/t3z58ijVecGiXkoVny0XlL/Qjl8M1JcNgIQgajrW+NlOS/WOB0oIxOqCQZcBgwE1rZRr3SgE4c43MBo4GDgaOGmtfUlBIl9GWERhdC60QliAqqnpEO01pW5Pndu/f3+8+m/bkKFD8woYIkfns2N5m6USINa1tcfE3h6Dka0v0KDzUcoOZc9uoa4Q7kOnCj1zhIbj2wNpKj/eOetOhHHaWu/VhvbBANmzZ88o5fBzFRr3bis2QyfU+tOGvo3dcOTYt7fzOGbWzJl+Fs8LHa1FIl8GbNRtaXTmVakwtokXFIZjQkj7YMf7DQ3giiadOx8cw/1NOK0xVQJCUOFANGXK1Hh9gTye9Z577omObpziE+ct1QIcNqWD2tsnSSykddNN4/0vx3N/hIoBGW8zfCuK4xh8C42Blpvmyl9pCDOYd95SveeK59PmwwXPasHMjTCIla21ce+2Qr8OQ5dsz/z2GR96tRmovakUhmJbg0S+RBAKsbAIIzJincuLDNm9u86Ltnk9LKQyFQbEhlkAXpDFg+koeBw24rPZGzlJuC9lsPAOXkG+UFA1+OpXvho/Ax2d+GxrpqAtUVtbGy+c2mZ2xDbENOnUpLMeQMzeZkTmLdl5rY2BlpuWyl9OEGbe0jLbQKHeJeWjnJSXc5NtvppQtnCtAYeIReK01Hno6duWr+8n0ef/qgTTV+JrbZl+CSFEociTF0KIDCORF0KIDKNwjRBCZBh58kIIkWEk8kIIkWEk8kIIkWEk8kIIkWHyLrx27Ngx+ksIIUR7RZ68EEJkGIm8EEJkGIm8EEJkGIm8EEJkGIm8EEJkGIm8EEJkGIm8EEJkGIm8EEJkmKqK/NQpU9zqVauabL9++ukot3lGXTLKLVva+CUXUXmGDB7iFi9aGNcbf5MWMmfOIznzw/Rwy3WNYqGdcF1+Q9hf8fsV8b1piyG0Q8srtE22huT9k8+etFGyfAbt/5n580tqt2TZ2CiPEdpm5UsvxX0w13m2JctPeXnmctg2Hy3VOeRrs8Viz2vXZgufPZkf2huS7YHn4HkKoeqe/J49dW7ixElu2PDhfvvmNddEOUc3VGCaB7FLLrnYvfLKH+N6O3Cg3t1++21RbuMAfuYXz3LTpk0/In/SpFvi89iof9oB11u7rnTf1KRjzJgx3dXWHhulNEKHuuWWie6NP73u7z9v3jw3YsRFsa2t81n5INnpimXw4LPd8uXL4ueHG8eN9b+Ur2NNx7hfLFiwwJcv2akp5/jxjd+fLSV9+pzsDh36NK47NuoMKMNf//rXOH39hvVuzJjLfZmXPLfEnX/B+XEeG2Wnbp977nl/vkH76date7RXfij3HXfcEducZ/va177apH9hz1NPOSW2+2WjLy9Ze+zWjY/01/i2ZrYJtY6+QR+xstF3wkGo6wld3Zq1a+JzsTP2LgSFa0SbmDlrlt+MF154wXXp0jkWov79+3sRtYaYzA+hw0NSCIoBUabDPv30r71ghSCwdLhFCxf7fT40vXv3Ljdg4ABfPspJeQ3+Pv3zn89Z9rYS2g8heXfbNt+Rbf+mm2+OBWbdulf9MyC+hg1EiGg5QHD27NkT7R2G+rw5EMaNGzZ6WyJiSRD+L3/5H44YvEkfPHiw++CDD6KU8kOd19d/HLcxnuOtt992F154od9H7Kn3Rx6ZWzJhT8KHwbdvfy/aO0yyzVE2+g59KGTnjp3RX60jtSLPKMb05Z//+Z/jKUqu6dPpp5/up4y5pjBcw85NTivxkn/0wAPxuYgC6TadS16L+4bTqXCqxblMmcm3+ySPD+8PnMM1+E1ek+OmTp3ijjvueO+phc8dHh+W0exFOchjP1mG1kzxWgudnEaMMHAPGi0CYCBU5NPZQihjLiEoFjxPPLH6+gNRymEQ83379jfxhDZt2uQHhb59+0Yph7GOGYpsKcFeDCLhwBIy+vLLfHkZjAy8wHLNehu9zsJmB4gkYhna0sg3eDNjoS3s2LkjSqkOiGanTrW+DdIm8j1HKaDtMBjmgj6BPegjBn3HnCLKRznbStVFninb3LlzYiEKpyjk0fhtipIMCXTo0NGdcUY/N3nyd/0Ui5F67NgbfB7XYYprU84lS5bE00oIz2UKNWjgID+du/fee+Nr0bmAc2bMmOa9La5FPkYPy8rX1BcsWOjOPe88X1kcb9Mvu/+3vvXtJiJrghJeExGnM8+cOcv95S8f+bLZtJG8cDrJaG/PC9hr3bp1Pg8vkcbz5ptb4uuHz1RKTKixT2uFuhxefDHwdX4E1Tw8wGbHHNP2TpYPBnXaPO3uwQcfaiLiDPTmgEClw5hhvwwdGqDdk87G4GihnBBrE8nBm+eiTz/xxJNRSmWgTxK2s/Zm5TOYRf3t3/4WO3lsYf8uBbQhwodcO3TcCmXMmDH+3KTD2BKpi8mHIQDy7r//gWjvyCk/U1iElUbERoOykTkZLkBEDh48FHuS4bk0gI8+2h8fT1o4feaccHpv9wqnU++//37cSe34sCFzf0TW7g9bt26NO4hdExHPVfmkkRd2GsrD85o9krFPyvP92xoHxeQzlQrKZQNars7eEtgwKQTVhjaHXa2zH9vp790nn9RHuaUD4abN41gg9AziBnWHw0A+lHMWloQ+aP3RnI9Q6MN86i+XYNHO6W9he+QYHK0XX/xD2TzmfHC/p576lRs1apSv09mzH3I7d+6KchsZ3FA+6oLnSq7TFEtYn2z0F/pNrr6ehL6Bo2fn4jBef/31BZetXcXkmTYzrWmJfv36+YY5dMjQuKPilfTq1ctPRZNgRIyeL+bFOYRObBRmY1S1ASVJGLow7B4n9TwpSjkSjqdj5IJr4onYaM5GeY4/vnOzYQTzFtmwRymhkdFZEOlCPE2eLbQJooUNw2lqNaF+qKdkp1q58iWfnyueWgpMgPLF/Rk8WTMoxyysJbAFzlDoXIWYE2YeskH4g3AM5xu2uBg6cpUkFFp+Pz34aVznEDqFHGvrNOUABxBHMHT6klC2XOsi2A+nstCytSuRby6uFbJlyxZvIBalrKPa1pYGhqFZJApnHGz5Vt85nnLmGlCaWzzh+HyxUK65f/8+72GEZaCx0iBzgcDv/XBvfCyr86UCgf9v/+0bPqyUtCllZZALn5/GjKCHQkka9VRpry6MxRp4pNgqF7li+Ecb+QQnF9i150k9m6zJMED06HGiD1GGTgf7lZylGJSRmTHhJshX9+WEPkJ/yKUXtDnyc+mLUehCbKpFnrhgGENjqlfo4giVl+u1s7aAp4n42ituLcHxVFAYLye+RyMPvdbevXvHUy7KSXnzhS5IwzMK1xWag2MQMmsI1qhLBTHrfHVBWXmO0P4cnxTK5oS1nFgIweqTOqBuQlEyyON1tnyLom3lpw0Ds9nG2rbZh3vyUoBB26Gt5CpfOeBlh2TZzCunLGGsGhsywwzbda4BnedKvl6J00HIsjWvA5YKq3trC9iWerb+2FybaAvf+6fvxdcGtMEcHJw06t70AttTFhuA2KdOjFxa0hypW3gN43vEmHnVinSOwSiFxn3xLpl+hSGWtix2AI2bV6swvF2LLWzsIRw/bdoM39DtWASPeF/YmOvq6nwHIp9yUl7zijkOEQ3fruHZsUFor+SimGFCa+Edwir5QkFtJQyH2WY2SdofwpAOz4P3UinhCknWJ/FNwiU2IwrfYErmlYqDhw7GtrG2bfZBHIkPWxmII//85z8veRnyQWgmLBtrOdbv8Dotrs2GDZPtGo80bTMf2hv9yMqNw0MfpS0AtqWeqW/yS13vxxzzd74v2/0h7A/hOhC2533+cIb8lfO+Ep+bS0uaI7Wf/0MsWP0OKyJLICQsghYSyxZCiLbSrmLyQgghWodEXgghMkxqwzVCCCGKR568EEJkGIm8EEJkGIm8EEJkGIm8EEJkmLwLr0IIIdo/8uSFECLDSOSFECLDSOSFECLDSOSFECLDSOSFECLDSOSFECLDSOSFECLDSOSFECLDlETk58+f7zasX99kmz59WpSbLUZfNtq9uGKFmzhxYpRSPbD7o4/+JNprX2DHl1e+nNr2gl2tbMuWLnXDhg2LctJBGu2XLFO4heWj76xds8an85uGvgSU0crLc/A8aaGY+i5K5O3GMHDQoHh75rfPuJ49e/r0ttKeBUw0D4I5efKt7vU3Nvn2wifWRl50cao6+1ln9ndTpkz15fv4wAF35513RrnVJ632W7R4kTvn3HNiHWBDC/jM5bPPNn6qDtuOu/FG99jjj/v8IUOHurlz5/q8aoLtsCG2pFzYFhunYXAvtr6LEvlx48f5G1911VVRSiPTp89wEyZ8J9oToilDhjR+33XB7xb6fTr5rt273KBBA/1+tRkwYKBv14gWLF++3J3QpUtqPLu0289AnM4951y38uWVbvXq1fE+dk2DsIdgO2xo5cK22BhbV5ti67vNIs8oQsO3G+eDimW6m28aFIZ6OO6///cb/O/nTjvNDR82PJ7O4QGQvnjR4ibTlXBazRZ6/3bOPffcE+ezH47OyWlQsnzJ8l933XVRTiPJ85PXz0XymskpK8/Ac3JMmJcMIXSsafphF5431zUpIyGmnz/5pM/D5tWExvnhvn2xiMLGjRtc31P7tmi7coOtaNfr12+IUpxbu3atO3jwYIPXOThKqS5ptl/IpZeO8r/mxSNWfEze9tMCNsN22NDAttg4DQNnsfXdZpHv3r2bb/h1e+qilNxQsZs3b/bTjJsnTHD19QfcmK9f7vMQpWM7dfLp5C9bttxt2bLZXTRypPvzO++4VatXNZnOde/e3a1Zu9ofy2wB0Qun1fyybwMAcM7pp5/u89nCqTcd+q677oqnQWzhNI1t1syZbuu7W+P8mo41rra21p8PdPyly573edy/trZT3LhzYdekHHZNKu+6a69rMrj06NG9Yar72/j5eVYq1WyFd9S7d6/o6EZbMoUzW3DNK6+4Im4EHTrUuE7HHuvzkjMvIUoN7S704gHN+PTgp77/mTNSbYfjaKAkC69G6JVb5SFQt06e7P+mshHMrl27+X1AFLt36+7/vu/+++IGkYswtkcjQvQQWBvh+EWkmW4bnIMnb4RTbwSaQednP5sX5TadpiWnSfDYvMcazqmP9hpDU2zA/ZlGNbceYdfkOgbPRDlCT3H7e+/Fg5s9a9hhuCcDoZEMMXBNvCbuB4cOHfTPLkQloN3l8tqZoeOF4mzgsODkhbNvUXraLPJ1dXu8WJlAAx4ilYcHHhKKPyEYA6FCpGfNmtnqVXbuy/0pR8iOHTt8wzEPNsn2bdv9DAQQYzzqcGBhZkI+XkchsxXuE4ZeaMTNkeua3J9y5Bsc8j2rQRl4Zmxr5fjpo496T5/7tReSdZEmEKx89k8LabIfIYYPdrx/RHlCR408HJdCww7VAD1JK4XWd5tFvtA4JQK/d+8eL/65BgCEnnRW2wlZFCr0oRgnae7h+5zSxwsm5BsQrEPnGsg4n9AHcB6hFxqqPV/oXeci1zWNfA0q17OasAPPyjPzJoOVwzabZaSJXHZnJkI7qTa5bI1X2qlTrXcQ0kCa7QeUq1fP3k3WNYC2T99KG9Z/QifL1mbSMLAXW99tFnkMQ8wYY+SbbpkQmXixz6htPDx7dizqdCBCCoXC/Qn9EIe2WDa/7IcLKMTkLUbO/YlTb3lriw9rrF2zzoeLbrppvM8H/q6p6eAHMcqEoNsaAowYMcLnQ9LD5v4n9jjR/50PGxx5M8kgns55lCcX1giJcVpF80w8m8Ezh7ZIM+bJmd1pAzx/UhSqAbZm0A5tSZ0nF76qSZrtB/kGRdo+fcfKTVumTdOPsXs1IZTJep7pEX2efkqZq02x9V30l6HoCCxe1tYeE6U4V1//ibv77rt9p0DArrziSp9+6NAht3t3nV98IbQT5gGeqHmePAjv0wJePp4VDWLK1KlNGgQDTBgCCq/B9TkH78EWKfG0w4XHZPmZTob3SOa/+OKLbuDAge7Xv/lNvCBq9+e5ia3TaJt7hZTGzQzARDq0F3BN1i2SC6TMiiwcZDMGRnO7V9IW9iwMRrfffltc5jQQ2pV2QR2npWwQ2jLZZtJAmu1Hv8PTzGWzZNtnZp+W161DPUrqQLUppr4z/fk/E/k0VZYQQlSSkr5dIw4TLjbb1trFZSGEKBZ58kIIkWEyLfJCCHG0o3CNEEJkGIm8EEJkGIm8EEJkGIm8EEJkmLwLrx07Nv1vbIUQQrQ/5MkLIUSGkcgLIUSGkcgLIUSGkcgLIUSGkcgLIUSGkcgLIUSGkcgLIUSGkcgLIUSGOSpF/jsTJrhlS593oy5p/CygwT7p5Jcarr3i9yvc1ClTopSjG7PH6lWr/JY2u8yZ80hctsWLFrohg4dEOemgmvYLbbPypZeO6C+/fvrpOJ+/Q8K8XOdWE2xoZcO2SX2oJsXUtzz5CrHkuSXu/AvOdzNnzYpSmodKLdeAU20QzFtumeje+NPrbtjw4W7evHluxIiLUvOsdKAzv3iWmzZtui/fgQP1/vOJaaGa9qNd1nSo8fdlW7JkifvWt74dC6KJuuUDgwJwzF//+tc4b/2G9W7MmMtTMYBiO2yILSkbtsXGaShbsfUtkRcVZ/Dgs/0H0BctXOz3f/Loo2737l1uwMABfr/a9O/f33coBmZ44YUXXJcunWMhqzbVtB82uTkQl+eee97V13/sy4R9sBP2Mvj79M9/3uclz924YaN/jm7dukUp1QPbYUNsCdiWsvFc1abY+pbIt0A4hQunlzRaPO0fPfCATycfj4V0m1aFUz5GY6b9Ns3iWLyecOprXhD3mDp1ijvuuOPd+PHjm4QLwuPD63Ndjntm/nyfx77dM9fx1YTGuW/f/lhEYdOmTe7UU06puueEfRAqBMhYt+5V/+X+NHR4SJP9EGgEaM+ePVFKU7Zvf8//9ulzsv8NufDCC91bb7/d5DmqATbDdtjQoEzYuBIDZ0sUW99Hrcgfc0ytmzFjeiyAbOyTbiCUTIts2s7UNJxedujQ0Z1xRj83efJ3/RRq0MBB7o477nD33nuvmzhxkvdwRl9+mT82F3379vW/XJvjO3Wq9SLOSD1z5iz3l7985K972ejL3dp1a30eFcuxNqUcO/YGfw3o1q17gyCt83mEhRClN9/cEl+/pfII0VpoTwyADIQmjIi3QX6yT9HX2BCqSZNuiXJEuThqRf6TT+pj8baNfdKN5LSdqenBg4dij+7QoU/dggULvQDTyD/6aH98PGnvbtvmup7Q1R+bi61bt8aNnONfeeWPeUdn8zY4hmOB6RsDg3nne/bU+TIaDBbfv60xllxIeYRoDTgdrF088sjcuE3ef/8Dvk2akB/b6e+b9CmcD+tv9K80LmpnDYVr8kDDo7EOHTI0brBz585xvXr1yhlDpJGzQLdzx84opfUw5WUQyQX3rK09tmEmMSYuDzOP44/vnHMqbIRvM/AsaQb7mVikDeolX0giLVTKfvQNxBmHgZcJwjAC92fmaUK+cuVLPt3CNiEMCHDJJRf73zRSTH8uN4XWt0Q+DybaCxYsiBusbYW+IdNaGuObHaK9piAw+/fv8+GbsCznnndevFiUBIHf++He+Ng1a9dEOdWFjsMAGnpweHWUtdo0DrQHmwzkzNwoby6hqgbVtB/3nDFjmp9RfvOaa6LU/OSKJ6cN6+sn9TwpSjm8NpOGgb3Y+pbINwMxQ2Ly5Vqs7N27d5OFXO4VhmNCSNuxc0fBr5xxDA3DPBH2CfekAQsp3ThurP/FBj16nNhksbNaYGfqIKx3YsxpEqpq2s+87jAsmA/KRTjH3rYhHs9mUH5mp4Q6qw1lpKzWH8O1hmpTbH1L5JsBj50Ye7hAW8oYYl1dnRdtrss9uJfNEhAU3jwI364hfo/HQdjIymNv5CQxsbLwzuzZD+UNBVUaykYcl05F2a6//nr31FO/yjsjqTTJeodCvNZKUW37scAftkE2a4fh21/JcuEVjxo1Ks6n/LykkIbBkzIuX77M9zfKhkM0bdoMb+tqU2x96/N/VYLOQEwzTeIhhMge8uSFECLDSOSFECLDKFwjhBAZRp68EEJkGIm8EEJkGIm8EEJkGIm8EEJkmLwLr0IIIdo/8uSFECLDSOSFECLDSOSFECLDSOSFECLDSOSFECLDSOSFECLDSOSFECLDSOSFECLDSOTbwPz5892jj/4k2ksXaS5byOjLRruXV77sNqxf77fp06dFOekAG1rZli1d6oYNGxbllAaux3Xz3QN7WB5b0j4TJ050a9es8Xn8st8eqFS9U3/JftCcTZP1wUZfKge5yha2N7ZS1rdEXlQcOtTkybe619/Y5AYOGuQ/YzbyootTI1R0sLPO7O+mTJnqy/fxgQPuzjvvjHJLw6WXjnIrX17pr5+8B/Y5re9p7uYJE3Lah9/rrr3OPfb44z6f329efbUX0DRTiXq3QWT4sOFRSiMt2bR7t+6upqbGp5PPdtVVV/m8UtFc2T7b8bNx2Z757TO+bFafxda3RF5UnCFDhvgOteB3C/3+3Llz3a7du9ygQQP9frUZMGCgF6JFixf5/eXLl7sTunQpqYhOnz7Db0Z4j9WrV7vrb7jB/0LSPvyyTzrw++G+fW7M1y/3+2ml3PWO7e666y63dNnz7s/vvBOlNtKSTYEPd2/ftj3aKy2tKdvaNevcoUMHXZ9T+vj9YutbIl8CmNbZNCucdienh+H0j0p/ccUKf4xNX5PTMK4TTiFzTdPCaR7Hdqw5/LGX5Pncp5RC1VZotDRSE1HYuHGD63tq39h21QL7ILbr12+IUho63dq1XgCGDB0cpZSe7t27+XvU7amLUg6DTY7t1Mnt2LEjSjmSvXv3uK5du0V76aTc9c51zzn3nCaDZz6SNkVQGYDKRWvKhnhjJxP1XLSmviXyRYJI01hsqrVs2fI4HcGw6R/5HBfG4jp0qPHTsrvvvtsfQ0NgWsZ5NMJZM2f6aTx5yXzgWnQQuzfT/969e/k8wHPavHlzfP/6+gOp9/aORqjrc8851219d2vszYUQ2qmt7eQ9PGAAOrHHifGAT3sgvCQKJ2lTqK2tdbNmzYwdplIMPIVCXVrMHcJQUbH1LZEvATQWYnpw3/33+Y7KlP/V116NR2PSEOHQa2FK9otf/iL2bJ59dokXYjxGm9o+Nu8xnwdhPtfgWlzThAEvIZwKcu9bJ0/2f3MMIpJ2b+9oIxzMJ0z4TpR6GHMWwnZCvTLt/07DwI0oEAbYvr08YYYsks+mQ4YOjR0q6oN6qZTQh/eHcNZdbH1L5IsEYaUC8AAsnELDyDW9rqvb44XbBoQkCDGNC3JN3y2/Z8+e8UIR12yOMJSUXPBJGzybDVhp4+DBQy3aurXQVubOmeMH6lyLfNQdHv7ESZN8Rw+h3ZkgEQao6Vjjp/DtkUrWe3M2DcG5on/hbFUaBnti8OGsu5j6lsiXAKsAVr0Jp9AwTIyTHDhQnzPuCjY4QHMDAoMH12AQYDAwwvOBBk1DsMaxavWqKKe6UH7KGXpJzHzSIFK57Ep9dupUW9JFOQSeNyRoO2xJrO4uGjmyRQHE40uuI6SRatd7a2wKtINyLcQWQ2vrWyJfJA/Pnh3HymgQhGCABaWzv3R2nEfDvvKKK9wHO96PGxgx+REjRvi/4aabxvtfwjK22Ddu/DifBkwzic0RR+QaDCR4JdZpiDN27944KJjg22yCfcI7aYDnA3tebMRzpUGksCuedfgKG3WUXDAsFq655a0tOa+JPejE9hZKS9BGWlqoSwPVrPeWbPqD238Q91XApvSvUtZ5PrgvOmLQz/ucfHJeu7S2vvVlqDZgHgHTKirkyiuujHKcf8fVPLNkHp60xV0RkNtvv81t27bNDRzY+BpXff0nfhHWGhbCTFzQhDuZD5Tlc6ed5v+2eHyush06dMjt3l3nPj34acnf/20LPD+xxdraY3zZmAWlSaRY1LbwFnYttc3Ceguh/TCLG3fjjQ1OQIcotZG6ujo3ZepUP7sz20E5ylcuKlXvYR8FhLQ5m+IghX21nDZNli20CSTtksxvbdkk8lXCRP7Xv/lN6j0wIUT7ReEaIYTIMBJ5IYTIMArXCCFEhpEnL4QQGUYiL4QQGUYiL4QQGUYiL4QQGSbvwmvHjof/y1ohhBDtE3nyQgiRYSTyQgiRYSTyQgiRYSTyQgiRYSTyQgiRYSTyQgiRYSTyQgiRYSTyQgiRYcoq8kMGD3GLFy10q1etircVv1/hRl0yqkn+1ClT/H6lmDPnEffrp5+O9lpPW84v9JykTfhln3S+1o79+M0H9+BeaYc2wLNYu6h0G2gJbGhlM/uniTTYj3b4zPz5R9imOdtxzsqXXqpqufNBWaxcoU6lgWLquyKe/IIFC9yw4cP9tnv3LnfLLRNT12naAz959FF3/gXn+9/2DHVPG3jjT6/7NjFv3jw3YsRFzQ5elYQOdOYXz3LTpk335ePj63zFKy2kwX44E+PHj3c1NU0/p9ec7RCqb33r227JkiWpq3fKQFkoE2XDtmnRqWLru+LhmhdeeKGhYdS4bt0Ofw1fHF0MHny2bwOLFi72+wxaDP4DBg7w+9Wmf//+vkMtea7xw9O02S5dOqfGs6u2/WxGivOWpDnb9elzsjt06FO3bt2rPo/f+vqPU6EF2A4bmgOFbbExtq42xdZ3KmLynTt3jqciTOVshMoVeiCNjUazbOnz7kcPPBBP/5JTLEZApos2xUlOHbmO5YX3SZ4XlikknJZawzeSU79jO/19lNMI5QynX8nnzIU9c1iW5NSYxmAknyNpn2pB49y3b38sBLBp0yZ36imnNKmfaoB9EKWNGzZGKY1idPDgwVR0eKi2/b55zTV+S9KS7ezv0Zdf5vNMvEz0qwU2w3bY0MC22LhSA2dzFFvfFRV5CjRmzOXurbffblLgwQ3p9957r5+KvP/++/4Yjk0+iDUivAPo0KGjO+OMfm7y5O+6iRMnea9g7NgbfB7nzJgxzb27bZu/Ltubb27xedC3b19/fdLxSAYNHOTF085jmmnnMb1kmhkKJOcD+dy7U6faWKgReKZTNmV96qlfuc997vCX+bnOHXfc4ZYvX+bzOe70z3++4OmXwf2wD/fnOq+88kfXq1evKLexE/HMVkbsYx1MiEqzdt3ahrY+w7dZnA761IMPPtREC0TpqYjIjxkzxlfq7NkPNQjqQjdp0i1RTiOInVV0GM557rnnfdoll1zsfxEtPAEb+Zn6cT0aDxsih9gi1HbO44894X/h+7fd5o+DrVu3upmzZvm/uc9HH+339zTv4oknnvR5QD4CSZ7B+fYcdm8bkJJTVqZX6zes938D1+F69nwcx8DXGq+B+3A/7mvPxPNQLoP78szAMQx4XU/o6veFqDQ4Nz/84SzfZ3E8cOxwdlqziChaT0UXXhE689ILwYQJ0QR+Q1FrjpN6nuS98UKODUHoGUj27NkTpTSWg2txzXxw/MGDh1y/fv38QLNzx84o50i4Trdu3d3cuXPiUMrQIUNbJcCUk8EoLGcuwpAU90gzbamvSkHdtmTrapNW+5ntmEUSdrC4N84NDp717zTSXD+uNoXWd0XDNeZV3zhurP8tBOJ7hGgm3HyzF89C43dUjnn1rYHGaDOJJM1VeKPodnBbtmzJOSCEAs518LgZ+MItV5wzH42DysEm5eRZeWYDgd/74d74+mvWrolyqkuuuqGjU9Zqk8uuzLwo7/bt70Up1SWt9msPtstFLifOQsM8U7Uptr4rKvIYk6kar1gVGn9m1Gf0v/rqf/RefaHxOwaD2tpjmwwoLNK2JPq2OGSxfWA62aPHiU0GmN69e8fPQIMgBm+zDIzPM1oMn+M43uA6XK+Yaao1zC9/+R/iZyJExQwBSKNh2MDEPuGdNGBhKqsb7IM9wgW7aoFdqUfq0+rvwgsvPGLhq5qk1X4t2Y7yUc5kvwkXPKsFYeJQl5h1oAOFOpXlpNj6rqjIA6JNvJpFl2HDhkepzUMj+Lu/O6ZVjZhGRcyPirNwBUJLQ2wO8lkcQiDtPBoi1wo7eV1dnQ89kT9jxnT/TBbjJ1bPPunkc9zmzZt9HnAdFmNHjRoV3yPfGzzNgeeP0FvYh9HdYvLW4cL1EKbNaYCyPfLI3Lhurr/+em8Pm8ZXG+oxrD9ozSyr3KTZfs3ZjvJRTspLXrLfVBPKRuiId/8pGw4ROtCSXlSCYuu7XXz+D48XjzUtRhdCiPZCxT351pIMhQghhCicVHvyLBzyPjoLhsnXLoUQQrRMuwjXCCGEaBupD9cIIYRoOxJ5IYTIMBJ5IYTIMBJ5IYTIMHkXXoUQQrR/5MkLIUSGkcgLIUSGkcgLIUSGkcgLIUSGkcgLIUSGkcgLIUSGkcgLIUSGkcgLIUSGybzIT58+zW1Yvz7nRl6S+fPn+60lHn30JwUdJ3Iz+rLR7uWVLzdbF9WE+rWyLVu61A0bNizKSQdptx99w8oW9pPQrmw8A8+SBkKtKGe5sAFbSEv1WUx9HwUiP8MNHDTIb6tWr3J/fuedeJ+8JFdddZXfqg2V+uKKFW7ixIlRSnZAMCdPvtW9/sYmXw98xmzkRRen5lnpQGed2d9NmTLVl+/jAwfcnXfeGeVWnzTbj7IxKIL1s7A/de3azfdDyzvn3HPcosWLotzqge2wIbakXNgWG5dycDehHp747Cnpd911l1u67Hl/b9rdBedfENdnsfWtcI2oOEOGDHE1NTVuwe8W+v25c+e6Xbt3uUGDBvr9ajNgwEDfoUx8li9f7k7o0sV3xjSQZvtdemnjB7zvuece/5uLHTt2RH+lB2yHDbElYFtsjK1LQSjkOJohQ4YOdvX1B9yzzzZ+Q5p2t+WtLW7EiBF+v9j6PqpFHo8Nr2PxosXxFCgZhjHPxKZJyal7OC0Np2DJ89auWdNk5LX78GvH2H05jrIcf/zx/uPe4T3D48MpZa5nSZahnFPQ1kDj/HDfviYe3MaNG1zfU/s2sW01wD4I+vr1G6IU59auXeu/3E9nTANpth8D5MqXV7rVq1dHKYehbMd26hTtpQfKhe2woYFtsXGpBk6ux6wlV/QgFwyE2IqyFVvfR70n3717d7dm7Wo/DUpWAAacNXOm2/ruVp/Ptnnz5ijXuc+ddpo3NunP/PYZd/aXzvYCbecxzbfzqKDrrr2uichyPpB/c4OYU6mIOCM1Zfnoo4/81OyikSN9pyGPiuVYzsHbHDd+nL8GJJ8FD4Dy2vXxFsZ8/fLoaCFKC+2+Y01H16VzF+/U4FgknRu48oor8+Ydjaxds87V1naKZ0HY8dxzzvV/l4KjXuTr6uriaVISM/rPfjbP/8KtkyfHXgrTLhsYuMb+/fsbhLZbPL16bN5jPg/IR2RDb5DzJ0z4jv+ba+IB5RudSSMv9JKYvjEw2MCRfBYGC8oLnMNgRUxUiHJRU9PBfeELX3ATJ006wrmhDeKwkG5542688agXeuzwi1/+wtuIwW/unDlu586dUW7xKCbfDD179vTeuIlqoSD0TO/r9tRFKY0iy7W4Zj7q6vY0nHco2mtK927d/WhvXhDbrFkzXefOnV2fU/pERx1JGE5KLvikjbbYulJQL9RPmkmL/UJHJJdzY+AgbX/vvZKFRMpBpdYPcMiGDB3qBz9+//bp31qsz0LrWyLfDGFcrDUgBnjyCHOS5hoNgwOeUC4YMJgp2Oq/bTQIWyxKgsDv3bsnPpa3GtJALrsSy6Ws1QY7M0BTFwYzs06dat32bdujlOqSVvshOAhPa6mUkObDyh06YLY2U42B3WbttkZQbH1L5JvBYmU33TQ+SnHu4dmzWxR9W6gL4+UshJ7Y40R/TaPPySfHU1UaFa9F5Vu0Iu2DHe83ePJXtHh/4BgahnUgazhpwEJKZldsgG3Cxc5qgZ2pA+rCwmC85ZBc+KomabYfwhTajpAnfYh2T1r41k2uPlEteIOK12atP7J2RR+mL1caq1er52LrWyLfDHTqu+++21e+hTx6NwhzLhEOIX/K1KleZO08Gj7XCoVi9+46L9rkE3phIdVi/BzHa1Th2zXE7/E4ftrgzdt17Y2cJCZWFt4hzpcvFFRpKNvs2Q/HdiUuS0wy34yk0lAH1AV1QvkgDf92wkiz/bAdrwma7ZLt/qtf+apPz5VXTbAd5aa/UTYcIvpwS329FNC3w7fgkvcutr71+b8qwZsyLIKmSTyEENlDnrwQQmQYibwQQmQYhWuEECLDyJMXQogMI5EXQogMI5EXQogMI5EXQogMk3fhtWPHjtFfQggh2ivy5IUQIsNI5IUQIsNI5IUQIsNI5IUQIsNI5IUQIsNI5IUQIsNI5IUQIsNI5IUQIsNI5BsYMniIW7xooVu9atURG+nkN4edP3XKlCjlSH799NN+M/gCzcqXXvLbfffe51b8fkWz5wPncBy/+eAec+Y8Eu2ll1GXjPLPYnZu6dkrDTZsTRsoB83ZKO32y0eay01ZrFyUkbKmhWLsJpFvYO26te6y0Ze7YcOHu2nTpru//OUjN2/ePL9POvnF8s1rrvEbIBhjxlzulixZ4s497zz3gzt+4M6/4Hw3c9Ysn58PPuLNcfy2Z3j+W26Z6N740+vexth6xIiLmh28Kgkd6MwvnuXbAuU7cKDe3X77bVFuZcAWU6dOccuXL/NlYLP2kXb75SPN5aYMlMX6PWWkrNUY3JMUazeJfBXo1q2bq6mpcXv2VPfr+tVi8OCz/fMvWrjY7zNo7d69yw0YOMDvV5v+/fv7DrXkucYPKL/wwguuS5fOFfXsLrzwQrd+w/qcA3/a7ZePNJebMlAWc6AoI2WlzNWmWLtJ5AuAzr1saeNHfg28veQ0vuNnP9sk7BNOqZj+E0rhGnhoxx13vBs/frw//tpvX3tEuIe/7Tp2rVzlSIYVaAwGZQvLk5YpKI1z3779sYjCpk2b3KmnnFJ1zwn7IOgbN2yMUpxbt+5V/+X+SnV4ytCpU23cqZOk2X7NkdZyc2/KQFkMykhZCxXSclKs3STyJeTCCy5wCxYsbHZKxSg8c+asOCREOGjLli1RbiMIOudauIDjPvnk36LcwyDwVPTEiZP8ca+88kfXq1evKLfRA3jzzS0+j2Pq6z92oy+/LMoVaaVPn5MbBpVD7hvfuKrJAJ5mARfpRSJfQoix23SvrVNROvKXv/wPPhZrIzfXevDHD/q/DfM+EHZbM2Bqv3XrVv83cN73b2uMJXPMu9u2ua4ndPX7It10797dfXrwUz9As1VjXUBkA4l8Gdn74d7or8IpNF5f6HGEiMwbHDpkaJSaThCyUixylwM860quoXzySX2TcE0h6wJptl9zpLncO3fsjP5KH4XaTSJfRtriNSMkxH8R8ebIdRzePbFcA4FnoDFvcM3aNVFOdaHjUM4w/MBiZ1sGxVKTy66EvSjv9u3vRSnlhftQhnyk2X7NkdZyI5QI5kk9T4pSDq/NVHJgz0exdpPIF4B1fAu90ACImSchzGIVQVy9R48T8y6e5YMGR1iF65vXRlz/e//0Pf+3YQ0zvOcll1zcIE7d/d+k0TDME2Gf8E4aeO655/3vjePG+l+eD1uFi53VArsSAgvtz5suyYWvcsJ9qNuxY2+IUpqWIc32a440l5uZEq/N2hoaa1f0eRbdq02xdpPIFwAdnwXVQQMH+bDHHXfc0VD5R06Tdu7c5WbPfsgfM2rUKPfUU79qkzBMmnSLf4Vvxozp/lrXX3+9q68/EOUehvfuEYO5c+f44xjdLSZvYjVmzBifR7kIOaQByvbII3N9p7Lnw1a2nlFtWNsI7Q/2bxwqhd2P+yfLkHb75SPN5aYMrIPxxhtlwyGaNm2GL3O1KdZu+vyfEEJkGHnyQgiRYSTyQgiRYSTyQgiRYSTyQgiRYSTyQgiRYSTyQgiRYSTyQgiRYfK+Jy+EEKL9I09eCCEyjEReCCEyjEReCCEyjEReCCEyjEReCCEyjEReCCEyi3P/P/44iC14UkkDAAAAAElFTkSuQmCC;" vertex="1" parent="1">
                    <mxGeometry x="520" y="330" width="382.84" height="340" as="geometry"/>
                </mxCell>
            </root>
        </mxGraphModel>
    </diagram>
</mxfile>